<?xml version="1.0" encoding="UTF-8"?>
<svg xmlns="http://www.w3.org/2000/svg" viewBox="0 0 652.19 399.14">
  <defs>
    <style>
      .cls-1 {
        fill: #ebebeb;
      }

      .cls-2 {
        fill: #f5f5f5;
      }

      .cls-3 {
        fill: #fafafa;
      }

      .cls-4 {
        fill: #ffc3bd;
      }

      .cls-5 {
        fill: #ff7c76;
      }

      .cls-6 {
        fill: #e1e1e1;
      }

      .cls-7 {
        fill: #0d9bd3;
      }

      .cls-8 {
        fill: #0c2841;
      }

      .cls-9 {
        fill: #455a64;
      }

      .cls-10 {
        opacity: .3;
      }

      .cls-11 {
        opacity: .4;
      }
    </style>
  </defs>
  <g id="Background_Complete" data-name="Background Complete">
    <g>
      <path class="cls-2" d="m109.21,339.95c10.85-7.57,14.5-16.9,15.73-30.07,1.23-13.17-3.59-26.79-12.84-36.25-7.71-7.88-18.33-13.06-24.07-22.48-6.12-10.03-5.91-23.71-14.41-31.83-5.84-5.58-14.38-7.07-21.48-10.93-5.79-3.15-10.56-7.85-15.86-11.77-5.3-3.92-11.59-7.17-18.16-6.68C8.21,190.7.5,200.43.03,210.36c-.47,9.93,5.07,19.43,12.65,25.86,5.5,4.67,12.27,8.24,15.87,14.48,6.77,11.73-.3,28.03,6.96,39.46,5.3,8.35,17.33,12.34,19,22.09.61,3.59-.4,7.24-.37,10.88.09,11.37,10.72,20.54,21.91,22.56,11.19,2.02,22.62-1.49,33.17-5.74"/>
      <path class="cls-6" d="m39.61,229.92s.38.49,1.19,1.33c.92.93,2.11,2.13,3.6,3.62,1.59,1.54,3.51,3.45,5.59,5.8,2.11,2.33,4.62,4.88,7.09,7.98,1.27,1.52,2.59,3.11,3.97,4.77,1.37,1.66,2.66,3.5,4.08,5.35,2.88,3.65,5.59,7.82,8.53,12.14,5.63,8.8,11.28,18.82,16.27,29.8,4.89,11.03,8.64,21.91,11.48,31.96,1.28,5.06,2.6,9.86,3.41,14.43.44,2.28.96,4.47,1.29,6.6.32,2.13.63,4.18.93,6.14.68,3.9.91,7.47,1.26,10.6.37,3.12.53,5.82.63,8.04.13,2.1.23,3.79.32,5.09.09,1.16.16,1.78.2,1.78.05,0,.07-.61.07-1.78-.02-1.31-.04-3-.06-5.11-.01-2.22-.09-4.94-.4-8.08-.28-3.14-.44-6.74-1.06-10.66-.27-1.97-.55-4.03-.84-6.18-.31-2.15-.8-4.35-1.22-6.65-.78-4.61-2.06-9.44-3.31-14.54-2.8-10.13-6.53-21.09-11.45-32.19-5.03-11.05-10.75-21.11-16.46-29.93-2.98-4.33-5.74-8.49-8.68-12.13-1.44-1.84-2.76-3.67-4.16-5.33-1.41-1.64-2.76-3.22-4.06-4.73-2.52-3.07-5.1-5.58-7.27-7.87-2.15-2.31-4.12-4.17-5.78-5.66-1.56-1.42-2.81-2.56-3.78-3.44-.87-.77-1.35-1.16-1.38-1.13Z"/>
    </g>
    <g>
      <path class="cls-1" d="m595.54,145.39s-9.54-6.31-21.17,16.51c-11.63,22.82-16.04,35.98-16.04,35.98,0,0-3.07,4.78-6.36,1.66-3.28-3.12-7.78-11.99-13.36-10.39-5.79,1.66-7.7,8.12-6.59,17.61,1.1,9.49,2.76,30.38,2.9,32.27.14,1.85-.92,4.59-3.5,2.82-2.58-1.77-17.41-18.29-24.83-10.78s0,33.45.76,36.3c.76,2.85.2,4.07-1.16,4.78-1.35.71-5.82-5.32-10.23-9.84-4.41-4.53-10.32-9-14.24-4.31-3.92,4.69-5.17,24.16,13.36,55.77l9.54,14.09,17.07-.95c36.4-4.25,51.18-16.98,52.57-22.93,1.39-5.95-5.74-7.97-12.01-8.77-6.27-.8-13.76-.73-14.02-2.24-.25-1.51.38-2.69,3.12-3.8,2.73-1.11,27.91-10.81,29.44-21.25,1.53-10.44-20.59-12.34-23.56-13.33s-1.42-3.49.14-4.49c1.59-1.02,19.27-12.28,27.51-17.12,8.24-4.84,12.25-10.25,10.09-15.87-2.09-5.42-11.87-3.67-16.35-4.41-4.47-.74-2.51-6.07-2.51-6.07,0,0,7.85-11.44,19.06-34.47,11.21-23.03.14-26.88.14-26.88"/>
      <path class="cls-6" d="m585.09,165.81s-.06.17-.21.49c-.16.34-.38.82-.67,1.43-.61,1.27-1.48,3.11-2.61,5.47-2.27,4.74-5.61,11.59-9.76,20.02-8.3,16.88-19.96,40.1-32.93,65.7-12.97,25.61-24.68,48.8-33.07,65.64-4.18,8.41-7.56,15.22-9.91,19.95-1.16,2.34-2.07,4.16-2.7,5.42-.31.6-.54,1.07-.71,1.4-.16.32-.26.47-.26.47,0,0,.06-.17.21-.49.16-.34.38-.81.67-1.43.61-1.27,1.48-3.11,2.61-5.46,2.27-4.74,5.61-11.58,9.76-20.02,8.3-16.88,19.97-40.1,32.93-65.71,12.96-25.6,24.68-48.79,33.06-65.62,4.18-8.41,7.56-15.22,9.91-19.95,1.16-2.34,2.07-4.16,2.7-5.42.31-.6.54-1.07.71-1.4.16-.32.26-.47.26-.47Z"/>
      <path class="cls-6" d="m544.41,201.79s.19.4.43,1.15c.25.75.57,1.85.96,3.21.77,2.72,1.74,6.51,2.73,10.7.96,4.14,1.84,7.89,2.5,10.75.31,1.29.57,2.38.78,3.25.19.77.27,1.2.24,1.21-.03.01-.19-.4-.44-1.15-.24-.75-.57-1.85-.94-3.21-.74-2.73-1.66-6.53-2.66-10.72-.99-4.13-1.89-7.87-2.58-10.73-.32-1.29-.58-2.37-.8-3.25-.18-.77-.27-1.2-.23-1.21Z"/>
      <path class="cls-6" d="m553.61,232.37c-.04-.14,7.67-2.48,17.23-5.23,9.56-2.75,17.34-4.86,17.38-4.72.04.14-7.67,2.48-17.23,5.23-9.55,2.75-17.34,4.86-17.38,4.72Z"/>
      <path class="cls-6" d="m531.93,270.79s.45-.06,1.26-.06c.92,0,2.06,0,3.42.01,2.88,0,6.86,0,11.26-.17,4.39-.16,8.37-.44,11.24-.67,1.35-.11,2.49-.2,3.4-.27.8-.06,1.25-.07,1.26-.04,0,.04-.43.12-1.23.24-.8.12-1.96.28-3.39.44-2.87.32-6.85.67-11.25.83-4.4.17-8.4.12-11.28.02-1.44-.06-2.61-.12-3.41-.18-.81-.06-1.25-.11-1.25-.15Z"/>
      <path class="cls-6" d="m517.52,244.97s.27.32.67.95c.45.73,1,1.63,1.65,2.69,1.37,2.29,3.23,5.46,5.26,8.99,2.03,3.53,3.84,6.73,5.13,9.07.59,1.09,1.09,2.02,1.5,2.78.34.66.52,1.04.49,1.05-.03.02-.27-.32-.67-.95-.45-.73-1-1.63-1.65-2.69-1.37-2.29-3.23-5.46-5.26-8.99-2.03-3.53-3.84-6.73-5.12-9.07-.59-1.09-1.09-2.02-1.5-2.78-.34-.66-.52-1.04-.49-1.05Z"/>
      <path class="cls-6" d="m494.06,276.46s.33.42.84,1.23c.55.9,1.27,2.06,2.12,3.44,1.77,2.92,4.19,6.97,6.83,11.47,2.64,4.49,5.01,8.58,6.7,11.55.8,1.42,1.46,2.61,1.98,3.53.46.84.69,1.31.66,1.33-.03.02-.33-.42-.84-1.23-.55-.9-1.27-2.06-2.12-3.44-1.77-2.92-4.19-6.97-6.83-11.47-2.64-4.49-5.01-8.58-6.7-11.55-.8-1.42-1.46-2.61-1.98-3.53-.46-.84-.69-1.31-.66-1.33Z"/>
      <path class="cls-6" d="m512.96,308.1s.57-.07,1.59-.11c1.12-.04,2.57-.08,4.33-.14,3.66-.12,8.7-.31,14.27-.68,5.57-.36,10.6-.82,14.24-1.17,1.75-.17,3.2-.31,4.31-.42,1.02-.09,1.58-.13,1.59-.09,0,.04-.55.14-1.56.3-1.01.16-2.48.36-4.3.59-3.63.45-8.67.97-14.25,1.33-5.58.37-10.64.5-14.3.53-1.83,0-3.31,0-4.34-.03-1.02-.02-1.59-.06-1.59-.09Z"/>
    </g>
    <g>
      <path class="cls-6" d="m389.94,30.58h68.65c2.99,0,5.41,2.42,5.41,5.41v45.49c0,2.99-2.42,5.41-5.41,5.41h-36.15l-17.19,17.19v-17.19h-15.31c-2.22,0-4.01-1.8-4.01-4.01v-48.29c0-2.22,1.8-4.01,4.01-4.01Z"/>
      <path class="cls-3" d="m412.72,59.69c0,2.23-1.81,4.04-4.04,4.04s-4.04-1.81-4.04-4.04,1.81-4.04,4.04-4.04,4.04,1.81,4.04,4.04Z"/>
      <path class="cls-3" d="m428.7,59.69c0,2.23-1.81,4.04-4.04,4.04s-4.04-1.81-4.04-4.04,1.81-4.04,4.04-4.04,4.04,1.81,4.04,4.04Z"/>
      <path class="cls-3" d="m444.68,59.69c0,2.23-1.81,4.04-4.04,4.04s-4.04-1.81-4.04-4.04,1.81-4.04,4.04-4.04,4.04,1.81,4.04,4.04Z"/>
    </g>
  </g>
  <g id="Plants">
    <g>
      <path class="cls-7" d="m501.51,374.05c-17.18-16.7-17.48-42.55-13.03-65.02.74-3.75.98-7.79,3.31-10.81,2.33-3.02,6.89-4.6,10.01-2.46,2.59,1.77,3.28,5.23,4.4,8.18,1.5,3.92,4.12,7.4,7.47,9.89,2.2,1.64,5.05,2.88,7.63,1.96,3.55-1.26,4.66-5.7,5.25-9.45,1.1-7,2.19-14,3.29-21,.59-3.75,1.2-7.59,2.95-10.96,1.75-3.37,4.86-6.26,8.59-6.68,3.73-.42,7.81,2.36,7.96,6.15.06,1.58-.51,3.11-.65,4.69-.15,1.57.29,3.42,1.7,4.09,1.43.68,3.1-.14,4.4-1.05,4.49-3.16,7.91-7.61,11.16-12.06,3.25-4.45,6.44-9.03,10.63-12.59,4.19-3.56,9.58-6.04,15-5.47,5.42.57,10.61,4.82,11.1,10.32.5,5.51-3.46,10.37-7.52,14.11-6.02,5.54-12.82,10.2-20.14,13.78-1.32.65-2.75,1.34-3.43,2.66-1.22,2.37.74,5.24,3.08,6.46,2.64,1.39,5.73,1.59,8.59,2.41,2.87.82,5.83,2.63,6.48,5.57.91,4.08-2.95,7.58-6.53,9.7-7.18,4.24-15.07,7.23-23.23,8.8-2.92.56-5.97.97-8.51,2.55-2.54,1.58-4.43,4.73-3.52,7.59.91,2.86,4.23,4.27,7.2,4.21,2.98-.06,5.82-1.21,8.74-1.8,5.47-1.11,12.07.33,14.65,5.33,1.69,3.28,1.22,7.39-.45,10.7-1.67,3.31-4.38,5.96-7.2,8.34-9.84,8.35-21.69,14.43-34.33,16.62-12.63,2.2-23.9,1.51-35.07-4.77"/>
      <path class="cls-8" d="m498.49,390.75c2.28-8.82,5.96-19.07,11.17-29.92,5.18-10.86,11.85-22.29,19.24-34.01,1.86-2.92,3.69-5.81,5.5-8.66,1.81-2.84,3.61-5.65,5.54-8.29,3.83-5.31,7.92-10.11,11.95-14.56,4.02-4.45,8-8.52,11.75-12.3,3.76-3.77,7.33-7.23,10.72-10.23,6.76-6.04,12.78-10.26,17.03-12.99,2.12-1.37,3.8-2.38,4.95-3.05.55-.32.99-.57,1.31-.75.3-.17.45-.25.46-.23,0,.01-.14.11-.42.3-.32.2-.74.47-1.28.81-1.12.71-2.78,1.75-4.88,3.16-4.2,2.79-10.15,7.06-16.85,13.13-3.36,3.02-6.9,6.49-10.64,10.27-3.73,3.8-7.69,7.88-11.69,12.32-4,4.44-8.06,9.24-11.87,14.52-1.91,2.63-3.69,5.42-5.51,8.27-1.81,2.85-3.64,5.73-5.5,8.65-7.38,11.71-14.05,23.11-19.25,33.92-5.22,10.8-8.94,20.99-11.27,29.76"/>
      <path class="cls-8" d="m540.14,309.87s-.08-.59-.11-1.66c-.03-1.07-.02-2.62.02-4.53.08-3.82.37-9.1.71-14.91.34-5.82.55-11.08.57-14.89.01-1.91.01-3.45,0-4.52,0-1.07,0-1.66.06-1.66.05,0,.12.58.22,1.65.1,1.06.18,2.61.23,4.52.11,3.82-.03,9.11-.37,14.93-.35,5.74-.67,10.92-.91,14.89-.1,1.79-.18,3.3-.25,4.51-.06,1.07-.12,1.66-.17,1.66Z"/>
      <path class="cls-8" d="m589.83,308.72s-.71.02-1.96-.08c-1.26-.09-3.07-.23-5.32-.34-4.5-.24-10.72-.36-17.59-.19-6.87.18-13.08.61-17.57,1.05-2.24.2-4.06.42-5.31.56-1.25.15-1.95.2-1.96.16,0-.05.68-.2,1.92-.43,1.24-.22,3.05-.51,5.29-.78,4.48-.57,10.71-1.08,17.6-1.26,6.89-.17,13.13.03,17.63.4,2.25.17,4.07.39,5.32.56,1.25.18,1.94.31,1.93.36Z"/>
      <path class="cls-8" d="m510.39,360.04s-.1-.21-.23-.64c-.15-.51-.32-1.13-.54-1.88-.46-1.63-1.07-4.02-1.78-6.97-1.43-5.9-3.14-14.12-4.91-23.22-1.77-9.1-3.4-17.32-4.71-23.25-.64-2.88-1.17-5.25-1.56-7.01-.17-.76-.3-1.39-.41-1.91-.09-.44-.12-.67-.1-.68.02,0,.1.22.23.64.15.51.32,1.13.54,1.88.46,1.63,1.07,4.02,1.78,6.97,1.43,5.9,3.14,14.12,4.91,23.22,1.77,9.09,3.4,17.32,4.71,23.24.64,2.88,1.17,5.25,1.56,7.01.17.76.3,1.4.41,1.91.09.44.12.67.1.68Z"/>
      <path class="cls-8" d="m577.85,349.83s-.23.08-.68.16c-.53.09-1.18.19-1.96.32-1.81.28-4.25.65-7.23,1.11-6.1.94-14.51,2.32-23.8,3.87-9.3,1.55-17.73,2.86-23.85,3.67-3.06.41-5.54.71-7.26.88-.79.08-1.45.14-1.98.19-.45.04-.69.04-.7.02,0-.02.23-.08.68-.16.53-.09,1.18-.19,1.96-.32,1.81-.28,4.25-.65,7.22-1.11,6.1-.93,14.51-2.32,23.81-3.87,9.29-1.55,17.72-2.86,23.85-3.67,3.06-.41,5.54-.71,7.26-.88.79-.08,1.45-.14,1.98-.19.45-.04.69-.04.7-.02Z"/>
    </g>
    <g>
      <path class="cls-7" d="m40.1,295.16c5.41-1.45,11.32-.08,16.08,2.86,4.76,2.95,8.48,7.35,11.45,12.1,5.74,9.19,7.71,21.5,7.91,32.34-12.02-.56-22.24-10.06-27.12-15.21-7.72-8.14-16.72-27.53-8.32-32.08"/>
      <path class="cls-7" d="m94.85,349.81c-4.92-3.86-7.09-10.66-6.02-16.83,1.07-6.16,5.08-11.6,10.26-15.11,2.4-1.62,5.36-2.9,8.13-2.07,2.59.78,4.38,3.31,4.89,5.97.51,2.66-.07,5.41-.97,7.96-3.08,8.75-7.67,16.64-16.29,20.08"/>
      <path class="cls-8" d="m105.77,384.1c-.07.04-.5-.65-1.2-1.94-.7-1.28-1.67-3.16-2.8-5.52-2.23-4.7-5.23-11.39-6.66-19.34-1.42-7.96-.38-15.46,1.62-20.35.98-2.46,2.07-4.32,2.94-5.5.87-1.19,1.44-1.77,1.5-1.73.21.14-1.93,2.65-3.63,7.53-1.74,4.83-2.61,12.09-1.23,19.85,1.39,7.76,4.22,14.42,6.25,19.2,2.07,4.78,3.38,7.73,3.22,7.81Z"/>
      <path class="cls-8" d="m48.26,309.33c.06-.05.99.91,2.61,2.7,1.62,1.79,3.92,4.42,6.73,7.7,5.62,6.56,13.23,15.74,21.38,26.09,8.15,10.35,15.3,19.91,20.36,26.9,2.53,3.5,4.55,6.35,5.91,8.34,1.36,1.99,2.08,3.12,2.02,3.17-.07.05-.92-.98-2.4-2.89-1.6-2.08-3.69-4.82-6.21-8.11-5.23-6.86-12.48-16.32-20.62-26.66-8.14-10.34-15.64-19.6-21.08-26.29-2.61-3.23-4.78-5.9-6.43-7.94-1.51-1.89-2.31-2.95-2.25-3.01Z"/>
      <path class="cls-7" d="m86.73,363.17c-10.3-8.24-24.72-11.04-37.35-7.24-3.22.97-6.78,2.93-7.1,6.27-.32,3.35,2.82,5.97,5.83,7.46,12.54,6.23,28.82,3.85,39.06-5.69"/>
      <path class="cls-8" d="m57.37,362.05c-.02-.08.72-.3,2.09-.63.68-.18,1.52-.36,2.52-.47.99-.12,2.12-.33,3.38-.34,2.51-.18,5.53-.06,8.83.39,3.29.52,6.87,1.4,10.47,2.79,3.58,1.44,6.79,3.25,9.55,5.13,2.72,1.94,5,3.91,6.71,5.76.91.87,1.59,1.79,2.23,2.56.65.76,1.14,1.47,1.52,2.06.77,1.17,1.16,1.84,1.1,1.89-.19.14-1.91-2.45-5.45-5.9-1.75-1.74-4.04-3.6-6.73-5.44-2.73-1.78-5.87-3.51-9.36-4.92-3.51-1.36-6.99-2.25-10.19-2.82-3.22-.49-6.16-.7-8.63-.63-4.94.09-7.97.81-8.01.58Z"/>
    </g>
  </g>
  <g id="Device">
    <g>
      <rect class="cls-9" x="99.23" y="125.67" width="408.03" height="269.83" rx="14.57" ry="14.57"/>
      <path class="cls-9" d="m82.74,375.53h442.07v5.81c0,9.82-7.97,17.8-17.8,17.8H100.53c-9.82,0-17.8-7.97-17.8-17.8v-5.81h0Z"/>
      <rect class="cls-2" x="110.75" y="136.39" width="384.98" height="227.86"/>
      <path class="cls-8" d="m263.59,375.53s.14,0,.42-.01c.31,0,.74,0,1.29-.01,1.17,0,2.86-.02,5.03-.03,4.42-.02,10.78-.04,18.65-.08,15.88-.03,37.85-.08,62.37-.13h.46s-.23.4-.23.4c-.78,1.34-1.63,2.79-2.48,4.24-.89,1.52-1.77,3.04-2.62,4.48l-.08.13h-.15c-33.92-.06-62.89-.12-77.19-.14h-.07s-.03-.06-.03-.06c-1.76-2.86-3.11-5.06-4.04-6.57-.44-.72-.78-1.27-1.02-1.67-.23-.37-.33-.55-.33-.55,0,0,.14.2.38.58.26.39.61.95,1.08,1.67.95,1.47,2.33,3.62,4.12,6.42l-.1-.06c14.3-.03,43.27-.08,77.19-.14l-.23.13c.85-1.45,1.73-2.96,2.62-4.48.85-1.45,1.69-2.9,2.48-4.24l.23.4c-24.42-.05-46.3-.1-62.11-.13-7.91-.03-14.3-.06-18.74-.08-2.2-.01-3.91-.02-5.11-.03-.57,0-1.01,0-1.34-.01-.3,0-.47-.01-.47-.01Z"/>
    </g>
    <path class="cls-8" d="m507.26,375.53c0,.14-91.35.25-204,.25s-204.02-.11-204.02-.25,91.33-.25,204.02-.25,204,.11,204,.25Z"/>
  </g>
  <g id="Character">
    <g>
      <g>
        <g>
          <path class="cls-8" d="m287.8,68.96c-6.29,2.76-9.95,9.54-11.33,16.28s-.92,13.69-1.52,20.54c-.6,6.85-2.47,14-7.47,18.72-4.66,4.4-11.51,6.19-15.48,11.21-2.94,3.73-3.81,9-2.21,13.48,1.6,4.48,5.61,8.01,10.25,9.03-3.14,4.97-1.57,11.91,2.45,16.2,4.01,4.29,9.91,6.34,15.72,7.22,10.22,1.56,21.12-.16,29.75-5.85,8.63-5.69,14.67-15.57,14.65-25.9"/>
          <path class="cls-9" d="m260.55,170.54s-.57-.71-1.11-2.23c-.54-1.51-.92-3.9-.4-6.75.26-1.42.73-2.94,1.44-4.48.74-1.53,1.71-3.07,2.89-4.56,2.34-3.01,5.49-5.78,8.65-8.75,3.16-2.99,6.06-5.96,8.41-8.9,2.38-2.91,4.17-5.82,5.38-8.38,1.21-2.57,1.86-4.79,2.18-6.35.19-.77.24-1.39.33-1.8.07-.41.12-.63.14-.63s0,.22-.04.64c-.06.42-.08,1.04-.24,1.83-.27,1.58-.87,3.84-2.06,6.46-1.19,2.61-2.96,5.57-5.34,8.52-2.35,2.98-5.26,5.98-8.43,8.98-3.18,2.99-6.31,5.73-8.63,8.68-1.17,1.46-2.14,2.97-2.88,4.46-.72,1.5-1.19,2.98-1.47,4.37-.55,2.78-.23,5.12.24,6.63.48,1.51.98,2.26.92,2.29Z"/>
        </g>
        <g>
          <path class="cls-8" d="m363.01,91.55c0,9.24,4.26,17.71,8.1,20.83,5.42,4.41,13.38,6.54,18.63,8,7.64,2.13,14.04,8.82,15,16.7.95,7.87-4.19,16.29-11.88,18.27,4.83,4.93,3.39,13.41-.58,19.05-7.53,10.69-22.56,14.8-35.03,10.85-12.47-3.95-22.02-15-25.74-27.54"/>
          <path class="cls-9" d="m382.02,182.57c-.03-.08,1.22-.08,2.94-1.29.84-.6,1.75-1.53,2.46-2.82.73-1.27,1.26-2.91,1.32-4.76.05-1.84-.5-3.86-1.55-5.76-1.05-1.91-2.6-3.7-4.49-5.27-3.78-3.19-8.93-5.18-13.91-8.05-2.48-1.46-4.78-3.14-6.61-5.19-.91-1.02-1.7-2.12-2.31-3.29-.61-1.17-1.03-2.41-1.29-3.64-.53-2.47-.48-4.87-.32-7.07.17-2.21.45-4.25.64-6.11.41-3.72.36-6.77-.14-8.8-.14-.5-.26-.94-.36-1.34-.11-.38-.27-.69-.36-.95-.2-.51-.3-.79-.29-.79.02,0,.14.25.38.75.11.25.28.56.41.94.12.4.26.84.41,1.34.57,2.05.67,5.14.3,8.88-.17,1.87-.43,3.91-.58,6.1-.14,2.19-.17,4.55.36,6.95.51,2.39,1.7,4.74,3.52,6.7,1.78,1.99,4.05,3.65,6.5,5.08,4.92,2.84,10.11,4.85,13.96,8.12,1.92,1.61,3.5,3.45,4.56,5.42,1.06,1.97,1.6,4.05,1.53,5.97-.08,1.91-.66,3.59-1.43,4.89-.76,1.31-1.71,2.24-2.59,2.84-.87.62-1.69.84-2.21,1.01-.55.1-.84.14-.84.13Z"/>
          <path class="cls-9" d="m400.02,151.74c-.09-.03.8-.76.93-2.57.04-.88-.13-1.99-.71-3.12-.57-1.12-1.49-2.3-2.83-3.13-1.36-.83-3.06-1.35-4.91-1.66-1.86-.32-3.89-.44-6.02-.77-4.26-.66-8.8-2.34-12.93-5.12-4.12-2.79-7.38-6.39-9.56-10.11-2.2-3.72-3.35-7.49-3.92-10.68-.57-3.21-.54-5.86-.41-7.67.07-.91.15-1.6.24-2.07.07-.47.12-.72.14-.71.06,0-.11,1-.19,2.8-.07,1.8-.05,4.43.56,7.59.61,3.15,1.79,6.86,3.97,10.51,2.16,3.65,5.38,7.18,9.44,9.93,4.07,2.73,8.54,4.4,12.73,5.08,2.1.34,4.13.47,6.02.82,1.88.33,3.63.88,5.03,1.77,1.41.89,2.33,2.13,2.9,3.31.58,1.18.73,2.34.66,3.25-.08.92-.41,1.58-.66,1.99-.13.2-.26.33-.34.43-.08.09-.12.14-.13.13Z"/>
        </g>
        <g>
          <g>
            <g>
              <path class="cls-4" d="m292.29,199.88c1.32-13.81,2.45-28.37,2.45-28.37,0,0-17.49-4.7-18.89-28.27-1.34-22.47,7.34-73.22,7.34-73.22h0c26.62-7.92,56.26,2.01,72.5,24.3h0l-12.54,111.98c-1.46,13-13.79,22.1-27.7,20.44h0c-14.05-1.68-24.41-13.7-23.15-26.86Z"/>
              <g>
                <path class="cls-8" d="m285.84,110.59c-.21,1.57.94,3.04,2.57,3.28,1.63.25,3.12-.81,3.33-2.38.21-1.57-.94-3.04-2.57-3.29-1.63-.25-3.12.82-3.33,2.38Z"/>
                <path class="cls-8" d="m281.34,106.78c.33.42,2.75-1.02,5.95-.7,3.2.28,5.39,2.16,5.78,1.8.19-.16-.12-.89-1.07-1.74-.93-.84-2.58-1.73-4.58-1.92-2-.19-3.75.38-4.78,1.04-1.06.66-1.46,1.33-1.3,1.52Z"/>
              </g>
              <g>
                <path class="cls-8" d="m318.56,114.38c-.21,1.57.94,3.04,2.57,3.28,1.63.25,3.12-.81,3.33-2.38.21-1.57-.94-3.04-2.57-3.29-1.63-.25-3.12.82-3.33,2.38Z"/>
                <path class="cls-8" d="m314.64,111.23c.33.42,2.75-1.02,5.95-.7,3.2.28,5.39,2.16,5.78,1.8.19-.16-.12-.89-1.07-1.74-.93-.84-2.58-1.73-4.58-1.92-2-.19-3.75.38-4.78,1.04-1.06.66-1.46,1.33-1.3,1.52Z"/>
              </g>
              <path class="cls-8" d="m300.68,133.84c.03-.18-1.92-.72-5.11-1.45-.81-.17-1.57-.4-1.65-.98-.13-.61.29-1.46.78-2.37.96-1.9,1.97-3.9,3.03-5.99,4.23-8.53,7.38-15.58,7.03-15.75-.35-.17-4.05,6.61-8.28,15.15-1.02,2.11-2,4.11-2.93,6.04-.4.9-1.04,1.9-.74,3.17.16.63.72,1.14,1.23,1.33.51.21.97.27,1.37.33,3.23.49,5.24.71,5.27.53Z"/>
              <path class="cls-5" d="m294.74,171.51s15.51,2.54,31.89-5.23c0,0-9.11,15.2-32.12,10.74l.23-5.51Z"/>
              <path class="cls-5" d="m301.27,141.69c1.3-1.41,3.4-2.05,5.38-1.63,1.38.29,2.71,1.09,3.45,2.31.73,1.21.75,2.84-.12,3.84-.98,1.13-2.82,1.23-4.3.65-1.49-.58-2.7-1.72-3.85-2.85-.32-.31-.64-.64-.82-1.04-.18-.4-.18-.9.12-1.19"/>
              <path class="cls-8" d="m309.88,136.98c-.52-.08-.87,3.39-4.08,5.57-3.21,2.18-6.88,1.43-6.96,1.91-.07.21.76.76,2.32.95,1.53.2,3.82-.07,5.79-1.4,1.96-1.33,2.94-3.28,3.2-4.69.28-1.44-.03-2.34-.27-2.34Z"/>
            </g>
            <path class="cls-4" d="m344.64,119.08c2.53-.24,5.14.09,7.42,1.21,2.28,1.12,4.19,3.09,4.98,5.5.8,2.42.43,5.12-.67,7.42-1.09,2.3-2.86,4.22-4.84,5.82-1.42,1.15-3.01,2.17-4.8,2.55-1.79.37-3.82,0-5.09-1.31"/>
            <path class="cls-5" d="m344.53,134.26c-.29.06.64,1.67,2.97,1.28,1.12-.18,2.28-1.04,3.04-2.17.77-1.16,1.32-2.45,1.64-4,.31-1.53.12-3.21-.62-4.47-.7-1.27-1.96-2.11-3.07-2.25-2.33-.28-3.21,1.26-2.95,1.34.17.21,1.16-.54,2.65-.02,1.44.41,2.68,2.57,2.11,5.05-.53,2.53-1.74,4.77-3.16,5.22-1.48.58-2.44-.17-2.62.02Z"/>
          </g>
          <path class="cls-8" d="m294.4,79.95c-3.42,7.95-10.74,14.1-19.15,16.13-.5-5.73-.83-11.53.11-17.2.94-5.67,3.25-11.27,7.38-15.26,4.14-3.99,10.27-6.14,15.83-4.66"/>
        </g>
        <path class="cls-8" d="m296,69.43c-2.89,7.26-1.7,15.99,3.02,22.22,4.72,6.23,12.8,9.73,20.57,8.91,1.52-.16,3.12-.46,4.54.09,1.53.59,2.53,2.02,3.44,3.38,3.7,5.53,7.61,11.27,13.43,14.47,5.83,3.2,14.17,2.89,18.07-2.5,1.9-2.62,2.45-5.95,2.89-9.16,1.48-10.77,2.08-22.34-3.05-31.92-3.81-7.12-10.51-12.42-17.93-15.63-7.41-3.21-15.53-4.49-23.59-4.98-4.69-.29-9.54-.29-13.88,1.48s-8.1,5.72-8.35,10.41"/>
        <path class="cls-9" d="m360.94,109.88s-.11-.27-.28-.79c-.16-.53-.43-1.29-.78-2.27-.73-1.95-1.95-4.72-3.95-7.86-2.01-3.12-4.85-6.59-8.67-9.68-3.81-3.12-8.65-5.62-13.89-7.82-5.25-2.2-10.37-4.01-14.86-6.11-4.49-2.08-8.32-4.44-11.21-6.84-2.88-2.41-4.82-4.79-5.94-6.56-.56-.89-.96-1.59-1.19-2.1-.25-.49-.37-.76-.35-.76.02,0,.17.24.44.72.26.49.69,1.17,1.26,2.04,1.16,1.72,3.12,4.04,6.01,6.39,2.89,2.34,6.7,4.65,11.18,6.7,4.47,2.07,9.6,3.86,14.86,6.07,5.25,2.2,10.15,4.75,13.98,7.92,3.85,3.14,6.69,6.67,8.68,9.84,1.98,3.19,3.16,6.01,3.83,7.98.33.99.57,1.77.7,2.31.14.53.2.81.19.82Z"/>
        <path class="cls-9" d="m353.73,108.61s-.15-.22-.39-.66c-.25-.43-.63-1.07-1.19-1.84-1.1-1.54-2.98-3.6-5.76-5.56-2.76-1.99-6.41-3.78-10.56-5.54-2.07-.89-4.26-1.81-6.48-2.87-2.22-1.06-4.48-2.25-6.72-3.59-4.49-2.68-8.46-5.75-11.65-8.98-3.2-3.22-5.6-6.57-7.27-9.56-1.69-2.99-2.64-5.61-3.2-7.44-.26-.92-.45-1.64-.55-2.13-.11-.49-.15-.75-.14-.76.02,0,.1.25.23.73.13.49.35,1.19.63,2.1.61,1.8,1.61,4.38,3.32,7.32,1.7,2.94,4.11,6.23,7.29,9.41,3.18,3.18,7.12,6.22,11.58,8.88,2.23,1.33,4.47,2.51,6.68,3.58,2.21,1.06,4.39,1.98,6.46,2.89,4.14,1.79,7.82,3.63,10.58,5.68,2.78,2.02,4.65,4.14,5.71,5.73.54.79.9,1.45,1.12,1.9.22.46.32.7.31.71Z"/>
        <path class="cls-9" d="m275.33,105.29s-.09-.18-.23-.53c-.13-.36-.33-.88-.55-1.57-.37-1.39-.89-3.44-1-6.04-.11-2.58.09-5.71,1.03-9.02.94-3.29,2.49-6.82,4.96-9.93,1.19-1.59,2.61-2.93,4.02-4.15,1.45-1.18,2.94-2.19,4.36-3.12,2.86-1.86,5.41-3.56,7.22-5.37,1.84-1.78,2.96-3.56,3.53-4.87.58-1.31.71-2.1.76-2.09.02,0-.01.2-.09.57-.08.37-.23.92-.5,1.59-.53,1.35-1.62,3.2-3.46,5.04-1.81,1.87-4.38,3.63-7.21,5.5-1.41.95-2.89,1.95-4.31,3.12-1.38,1.2-2.77,2.52-3.94,4.08-2.43,3.05-3.97,6.51-4.91,9.75-.95,3.25-1.18,6.33-1.12,8.88.07,2.57.53,4.6.84,6,.19.65.34,1.18.46,1.59.1.37.15.56.13.57Z"/>
        <g>
          <g>
            <path class="cls-7" d="m332.64,151.56c-5.42,0-10.85-1.85-14.86-5.45l.64-.71c6.95,6.25,18.41,6.98,26.1,1.65,7.68-5.33,11.02-16.32,7.6-25.02l.88-.35c3.58,9.09.09,20.58-7.94,26.15-3.6,2.5-8.01,3.73-12.42,3.73Z"/>
            <path class="cls-7" d="m324.91,147.49c0,2.54-2.06,4.61-4.61,4.61s-4.61-2.06-4.61-4.61,2.06-4.61,4.61-4.61,4.61,2.06,4.61,4.61Z"/>
          </g>
          <circle class="cls-7" cx="355.68" cy="124.07" r="15.43" transform="translate(189.24 462) rotate(-83.01)"/>
          <path class="cls-7" d="m353.18,121.92c-.1-.01-.06-1.41.09-3.91.05-1.27.11-2.8.18-4.57.02-1.78.08-3.81,0-6.05,0-1.12-.08-2.29-.14-3.51-.04-1.22-.18-2.48-.31-3.79-.1-1.31-.35-2.64-.52-4.03-.13-.69-.26-1.38-.39-2.09-.12-.71-.27-1.42-.46-2.13-1.31-5.71-3.77-11.83-8.08-17.01-4.3-5.19-9.93-8.67-15.38-10.78-5.47-2.14-10.73-3.17-15.15-3.81-4.43-.62-8.06-.81-10.57-.98-2.51-.11-3.9-.22-3.9-.32,0-.1,1.39-.19,3.91-.26,2.52,0,6.18.03,10.68.52,4.49.51,9.86,1.44,15.51,3.57,5.63,2.1,11.53,5.68,16.03,11.11,4.5,5.41,7.01,11.8,8.27,17.66.18.73.33,1.46.44,2.18.12.72.25,1.43.36,2.14.15,1.41.38,2.78.46,4.11.1,1.33.21,2.61.22,3.85.04,1.24.08,2.42.05,3.55,0,2.26-.13,4.3-.23,6.09-.15,1.79-.29,3.33-.43,4.58-.33,2.5-.56,3.88-.67,3.87Z"/>
          <g class="cls-11">
            <path d="m366.72,124.07c0,5.87-4.76,10.62-10.62,10.62s-10.62-4.75-10.62-10.62,4.76-10.62,10.62-10.62,10.62,4.76,10.62,10.62Z"/>
          </g>
          <path class="cls-8" d="m352.61,114.16s.16-.1.47-.25c.32-.14.81-.31,1.47-.44,1.29-.23,3.37-.24,5.51.94,1.05.58,2.1,1.48,2.83,2.71.75,1.22,1.15,2.75,1.14,4.36-.01,1.6-.51,3.31-1.57,4.72-1.06,1.41-2.68,2.44-4.49,2.87-1.8.44-3.72.28-5.31-.48-1.6-.76-2.8-2.07-3.54-3.49-.74-1.43-1.02-2.99-.91-4.41.13-1.43.67-2.68,1.31-3.7,1.3-2.05,3.1-3.11,4.4-3.43.65-.18,1.18-.19,1.53-.17.35.03.53.06.53.08,0,.07-.75-.11-2.01.28-1.24.36-2.93,1.43-4.15,3.43-.6.99-1.09,2.2-1.2,3.55-.09,1.35.19,2.82.9,4.17.71,1.34,1.85,2.56,3.34,3.26,1.49.7,3.28.86,4.99.44,1.7-.41,3.23-1.37,4.22-2.69,1-1.31,1.47-2.92,1.5-4.43.03-1.52-.34-2.98-1.03-4.14-.67-1.17-1.65-2.05-2.65-2.62-2.02-1.18-4.03-1.22-5.31-1.06-1.3.19-1.96.55-1.98.49Z"/>
          <path class="cls-8" d="m356.01,134.53c-.13.02-.43-1.09-.48-2.51-.06-1.41.14-2.55.28-2.54.14.01.16,1.14.22,2.52.05,1.38.13,2.5-.01,2.53Z"/>
          <path class="cls-8" d="m361.87,132.47c-.13.05-.62-.91-1.1-2.15-.48-1.24-.77-2.28-.64-2.33.13-.05.62.91,1.1,2.15.48,1.24.77,2.28.64,2.33Z"/>
          <path class="cls-8" d="m365.82,127.85c-.09.1-.82-.41-1.63-1.14-.81-.73-1.38-1.41-1.29-1.51.09-.1.82.41,1.63,1.14.81.73,1.38,1.41,1.29,1.51Z"/>
          <path class="cls-8" d="m366.1,121.4c-.05.13-.57.06-1.18-.16-.6-.22-1.06-.5-1.01-.63.05-.13.57-.06,1.18.16.6.22,1.06.5,1.01.63Z"/>
          <path class="cls-8" d="m349.07,132.15c-.13-.04.15-1.17.8-2.44.65-1.27,1.4-2.15,1.51-2.07.12.08-.44,1.06-1.07,2.3-.63,1.23-1.11,2.26-1.24,2.21Z"/>
          <path class="cls-8" d="m345.91,126.74c-.1-.1.51-.85,1.35-1.67.84-.83,1.6-1.41,1.7-1.32.1.1-.51.85-1.35,1.67-.84.82-1.6,1.41-1.7,1.32Z"/>
          <path class="cls-8" d="m348.38,119.38c.04.13-.4.36-.96.51-.57.15-1.05.17-1.09.03-.03-.13.4-.36.96-.51.57-.15,1.05-.17,1.09-.03Z"/>
        </g>
      </g>
      <g>
        <path class="cls-4" d="m429.09,203.8c-1-5.65-3.21-8.72-4.85-10.33-1.55-1.51-3.04-3.08-4.89-4.2-2.24-1.37-5.29-3.06-7.24-3.48-2.41-.52-3-3.66-.98-4.55,2.02-.89,8.7.38,15.13,5.11,6.42,4.73,3.18-7.24,2.07-11.63-1.11-4.38-3.89-18.08-2.8-19.45,1.59-2.01,4.1-.64,5.1,3.75,1.01,4.45,4.94,17.4,7.24,16.77,2.26-.62-3.67-22.86-3.67-22.86,0,0-2.04-4.57.59-5.39,4.74-1.48,9.3,22.57,9.68,24.87.26,1.6,2.79,1,2.41-.7-.38-1.75-6.44-22.05-1.63-23.61,3.69-1.19,3.94,19.76,7.54,23.33,3.61,3.57-1.82-15.91,1.76-16.9,1.33-.37,2.38-.46,3.87,11.13.8,6.23.28,14.82,2.71,26.71"/>
        <g>
          <path class="cls-4" d="m417.11,248.52l21.86,31.37-10.5-80.9,31.25-12.32s39.44,151.19-13.46,153.32c0,0-36.6-1-63.92-64.37l34.77-27.1Z"/>
          <path class="cls-5" d="m452.17,186.07c.06.08-.68.57-1.65,1.65-.95,1.06-2.1,2.8-2.56,5.04l-.12.59-.43-.43c-.49-.49-1.02-.98-1.62-1.42-2.27-1.68-4.81-2.39-6.64-2.58-1.85-.2-3.01,0-3.03-.11-.02-.07,1.13-.44,3.06-.36,1.91.07,4.61.74,7,2.51.63.46,1.19.98,1.69,1.5l-.56.16c.53-2.39,1.82-4.17,2.9-5.2,1.09-1.04,1.92-1.41,1.95-1.36Z"/>
        </g>
      </g>
      <g>
        <path class="cls-7" d="m401.4,313.93l-26.45-33.56-6.87,34.32c-2.78,13.9-1.35,28.32,4.12,41.4l3.41,8.16h-122.48l3.06-10.9c1.73-13.36-.59-27.31-.18-46.44l-3.4-21.57-18.53,78.92h-54.47s29.9-122.49,48.63-146.73c23.61-30.56,64.87-26.53,64.87-26.53l25.28,39.62,24.68-35.72s42.42-9.02,75.54,48l17.72,30.37h0l-8.23-62.53,38.35-8.85s13.85,61.43,12.94,94.33c-.81,29.38-13.32,44.8-30.65,46.31-27.24,2.38-47.33-28.6-47.33-28.6Z"/>
        <path class="cls-7" d="m293.1,191l.43-4.93s18.72,4.16,25,36.85c0,0,6.3-30.17,26.46-33.21l3.4,8.69-12.38,32.24-21.75,6.36-21.15-6.36-9.62-19.11,9.61-20.53Z"/>
        <path class="cls-8" d="m240.93,204s.05.29.1.85c.04.6.1,1.41.18,2.43.14,2.11.36,5.17.66,8.94.6,7.55,1.64,17.95,3.27,29.39,1.64,11.44,3.56,21.72,5.1,29.13.77,3.71,1.41,6.7,1.87,8.77.22,1,.39,1.8.51,2.38.11.55.16.84.15.84-.02,0-.1-.28-.24-.82-.15-.58-.35-1.37-.6-2.36-.52-2.05-1.22-5.04-2.03-8.74-1.63-7.4-3.61-17.68-5.25-29.13-1.63-11.45-2.61-21.87-3.13-29.43-.26-3.78-.43-6.84-.5-8.96-.03-1.02-.06-1.84-.08-2.44-.01-.56-.01-.85,0-.85Z"/>
        <path class="cls-8" d="m347.94,193.73s-.08.17-.27.47c-.22.34-.5.77-.84,1.3-.77,1.18-1.83,2.8-3.12,4.76-2.62,4.03-6.16,9.65-9.83,15.99-.15.25-.29.5-.42.73l-.24.41-.2-.43c-.75-1.61-1.52-3.18-2.69-4.33-1.15-1.14-2.71-1.83-4.17-1.56-1.46.23-2.62,1.23-3.44,2.26-.83,1.05-1.36,2.2-1.72,3.3-.71,2.19-1.12,4.04-1.64,5.24-.24.61-.49,1.05-.65,1.35-.18.29-.28.44-.3.43-.04-.02.34-.63.78-1.85.46-1.21.82-3.04,1.49-5.28.34-1.12.87-2.33,1.72-3.44.84-1.09,2.06-2.18,3.68-2.45,1.63-.32,3.36.45,4.58,1.66,1.25,1.22,2.04,2.85,2.8,4.46l-.44-.02c.13-.23.28-.48.42-.73,3.68-6.35,7.27-11.95,9.97-15.94,1.35-1.99,2.46-3.59,3.25-4.68.37-.51.68-.92.92-1.25.21-.28.33-.42.35-.41Z"/>
        <path class="cls-8" d="m330.11,212.24s-.06.15-.2.42c-.18.31-.4.7-.66,1.16-.63,1.06-1.48,2.49-2.51,4.22-1.09,1.79-2.37,3.89-3.78,6.22-.72,1.17-1.47,2.39-2.25,3.66-.4.64-.8,1.29-1.21,1.94-.12.17-.26.34-.47.48-.21.14-.52.19-.76.1-.5-.16-.75-.61-.95-.91-3.52-5.29-6.13-10.39-8.19-13.98-1.01-1.81-1.84-3.26-2.43-4.26-.58-1-.91-1.55-.88-1.57.01,0,.11.12.29.37.17.25.44.62.75,1.11.64.97,1.52,2.4,2.57,4.18,2.13,3.55,4.8,8.63,8.29,13.88.22.34.42.63.69.71.24.09.48-.1.69-.39.4-.65.8-1.29,1.2-1.91.79-1.26,1.55-2.48,2.27-3.65,1.45-2.3,2.76-4.39,3.87-6.16,1.09-1.7,1.98-3.09,2.65-4.13.3-.44.54-.81.74-1.11.17-.25.27-.38.29-.37Z"/>
        <path class="cls-8" d="m397.92,215.14s-.08.23-.28.65c-.23.46-.53,1.07-.9,1.83-.8,1.58-1.92,3.88-3.26,6.74-1.35,2.86-2.87,6.31-4.47,10.17-1.58,3.87-3.23,8.16-4.8,12.72-1.56,4.57-2.9,8.96-4.04,12.99-1.11,4.03-2.04,7.68-2.73,10.76-.71,3.08-1.24,5.59-1.58,7.32-.17.83-.31,1.49-.41,1.99-.1.46-.16.69-.18.69-.02,0,.01-.25.08-.71.08-.51.19-1.18.32-2.01.28-1.75.76-4.27,1.43-7.36.65-3.1,1.54-6.77,2.63-10.81,1.11-4.04,2.45-8.45,4.01-13.02,1.58-4.57,3.24-8.86,4.85-12.73,1.63-3.86,3.18-7.3,4.57-10.14,1.38-2.85,2.55-5.13,3.41-6.68.41-.74.74-1.34.98-1.79.23-.41.36-.61.37-.61Z"/>
        <path class="cls-8" d="m341.9,339.41s-.26,0-.77-.03c-.55-.04-1.27-.1-2.19-.17-.95-.07-2.11-.18-3.45-.35-1.34-.16-2.88-.32-4.56-.58-3.38-.46-7.38-1.16-11.79-2.07-4.4-.95-9.22-2.13-14.21-3.6-4.98-1.49-9.66-3.13-13.87-4.75-4.2-1.65-7.93-3.25-11-4.71-1.55-.7-2.92-1.41-4.14-2.01-1.22-.59-2.25-1.14-3.08-1.6-.8-.44-1.44-.79-1.93-1.05-.44-.24-.66-.38-.66-.4s.25.09.7.31c.49.24,1.15.56,1.97.97.85.43,1.89.95,3.12,1.52,1.22.57,2.6,1.26,4.16,1.94,3.09,1.42,6.83,2.98,11.02,4.6,4.21,1.59,8.88,3.21,13.85,4.7,4.98,1.47,9.77,2.66,14.16,3.63,4.4.94,8.38,1.67,11.74,2.17,1.68.28,3.21.46,4.54.65,1.34.19,2.49.33,3.44.43.91.11,1.63.2,2.18.27.5.07.76.11.76.13Z"/>
        <path class="cls-8" d="m336.48,341.55s-.17.06-.5.13c-.39.07-.87.17-1.46.28-1.27.24-3.12.53-5.41.84-4.58.63-10.94,1.28-17.98,1.53-7.05.24-13.44.04-18.05-.28-2.3-.16-4.17-.32-5.45-.46-.6-.07-1.08-.13-1.48-.17-.34-.05-.51-.08-.51-.09,0-.02.18-.02.52,0,.39.02.89.05,1.48.08,1.29.09,3.15.2,5.45.31,4.61.22,10.98.37,18.01.13,7.03-.25,13.38-.84,17.96-1.38,2.29-.27,4.14-.51,5.42-.68.59-.07,1.08-.14,1.48-.18.34-.04.52-.05.52-.03Z"/>
        <path class="cls-8" d="m379.83,286.55s.03-.25.14-.72c.13-.51.3-1.19.51-2.04.46-1.82,1.11-4.36,1.9-7.48,1.61-6.32,3.74-15.07,6.36-24.67,1.32-4.8,2.67-9.35,3.99-13.46,1.33-4.1,2.61-7.77,3.79-10.82.56-1.53,1.14-2.89,1.63-4.09.48-1.2.93-2.23,1.31-3.06.36-.8.65-1.43.87-1.91.2-.43.32-.66.33-.65s-.07.25-.24.69c-.2.49-.46,1.14-.78,1.95-.35.84-.77,1.87-1.23,3.08-.46,1.21-1.01,2.57-1.55,4.11-1.14,3.05-2.37,6.73-3.68,10.83-1.28,4.11-2.62,8.66-3.94,13.45-2.62,9.59-4.81,18.33-6.5,24.63-.84,3.15-1.54,5.69-2.05,7.45-.25.84-.45,1.51-.6,2.01-.14.46-.22.7-.24.69Z"/>
        <path class="cls-8" d="m251.97,284.91s-.19-.2-.52-.6c-.32-.41-.83-.99-1.4-1.81-1.18-1.59-2.75-4.02-4.37-7.18-1.63-3.16-3.23-7.09-4.58-11.59-1.36-4.5-2.43-9.57-3.19-14.93-1.46-10.75-1.7-20.56-2.14-27.63-.2-3.54-.38-6.4-.53-8.37-.07-.95-.12-1.71-.17-2.28-.03-.52-.04-.8-.03-.8s.06.27.13.79c.06.52.16,1.28.26,2.27.21,1.97.45,4.83.69,8.37.53,7.07.83,16.87,2.28,27.58.76,5.34,1.81,10.39,3.13,14.87,1.32,4.48,2.88,8.41,4.46,11.57,1.57,3.17,3.08,5.61,4.21,7.23.54.83,1.03,1.43,1.32,1.86.3.42.46.65.44.66Z"/>
        <path class="cls-8" d="m247.32,262.89c.03.15-1.42.46-2.96,1.37-1.55.89-2.53,2-2.64,1.91-.11-.07.75-1.38,2.39-2.34,1.63-.97,3.2-1.07,3.21-.95Z"/>
        <path class="cls-8" d="m246.39,250.05c.02.15-1.8.31-3.73,1.34-1.95,1.01-3.11,2.42-3.22,2.32-.11-.05.93-1.68,2.99-2.75,2.05-1.09,3.98-1.03,3.96-.91Z"/>
        <path class="cls-8" d="m243.58,238.31c0,.15-1.43.22-2.96,1-1.55.75-2.47,1.85-2.59,1.76-.11-.06.7-1.38,2.37-2.2,1.66-.83,3.21-.68,3.18-.56Z"/>
        <path class="cls-8" d="m242.21,226.19c.02.14-1.25.39-2.69,1.01-1.45.61-2.5,1.36-2.59,1.25-.09-.09.87-1.06,2.4-1.7,1.52-.65,2.88-.68,2.89-.55Z"/>
        <path class="cls-8" d="m241.42,216.39c.02.15-1.27.38-2.7,1.06-1.44.67-2.44,1.51-2.54,1.4-.1-.08.8-1.14,2.33-1.85,1.52-.72,2.91-.74,2.91-.61Z"/>
        <path class="cls-8" d="m382.4,271.57c-.12.08-.77-.79-1.96-1.26-1.18-.5-2.26-.32-2.29-.47-.06-.12,1.12-.55,2.47,0,1.36.54,1.9,1.68,1.78,1.72Z"/>
        <path class="cls-8" d="m386.12,261.56c-.13.06-.65-1.43-2.2-2.41-1.53-1.02-3.1-.87-3.1-1.02,0-.06.37-.19,1.01-.17.64.02,1.53.24,2.36.77.83.54,1.39,1.26,1.67,1.83.28.58.32.98.26.99Z"/>
        <path class="cls-8" d="m388.91,250.56c-.12.09-.92-1.15-2.53-1.76-1.59-.65-3.02-.3-3.05-.45-.02-.06.32-.23.91-.32.59-.09,1.45-.03,2.32.31.86.34,1.52.89,1.9,1.36.38.47.5.83.45.86Z"/>
        <path class="cls-8" d="m392.19,239.98c-.13.07-.65-.91-1.8-1.5-1.14-.62-2.24-.5-2.26-.64-.01-.06.26-.18.72-.21.46-.03,1.13.08,1.77.41.64.34,1.1.83,1.34,1.23.24.4.29.69.23.72Z"/>
        <path class="cls-8" d="m396.04,230.27c-.13.07-.66-1.12-2.03-1.72-1.35-.65-2.6-.29-2.63-.43-.02-.05.26-.24.79-.33.53-.09,1.3-.04,2.05.31.75.35,1.29.9,1.56,1.36.28.46.32.8.26.82Z"/>
        <path class="cls-8" d="m333.17,216.39s-.06.17-.21.46c-.19.34-.42.76-.7,1.28-.62,1.1-1.54,2.69-2.7,4.64-1.16,1.95-2.56,4.25-4.16,6.78-.8,1.26-1.66,2.58-2.57,3.93-.92,1.35-1.87,2.74-3.03,4.07-.3.33-.58.65-1.03.92-.11.08-.27.1-.44.09-.16,0-.25-.08-.38-.12-.21-.12-.4-.24-.57-.39-.68-.56-1.22-1.2-1.75-1.83-1.05-1.26-1.97-2.54-2.84-3.77-1.72-2.46-3.18-4.73-4.39-6.64-1.2-1.92-2.15-3.49-2.79-4.58-.29-.51-.53-.93-.72-1.27-.16-.29-.24-.45-.22-.46.01,0,.12.13.31.41.21.33.48.73.8,1.22.73,1.12,1.72,2.64,2.92,4.49,1.24,1.89,2.73,4.14,4.47,6.57.87,1.21,1.8,2.48,2.83,3.72.52.61,1.07,1.24,1.69,1.75.3.24.68.51.86.36.28-.17.6-.49.87-.8,1.11-1.28,2.07-2.68,2.99-4.01.92-1.34,1.78-2.65,2.59-3.91,1.62-2.51,3.05-4.8,4.25-6.72,1.17-1.88,2.12-3.42,2.83-4.55.32-.5.57-.9.78-1.23.18-.28.29-.42.3-.41Z"/>
        <path class="cls-8" d="m311.87,230.62c-.06,0-.18-.34-.13-.91.04-.57.29-1.36.84-2.06.55-.7,1.26-1.13,1.81-1.3.55-.18.91-.14.92-.08.04.14-1.35.39-2.34,1.69-1.03,1.26-.96,2.67-1.1,2.67Z"/>
        <path class="cls-8" d="m318.44,238.5c-.13.02-.47-1.74-.48-3.94-.02-2.2.3-3.96.43-3.95.14.02.05,1.78.07,3.94.01,2.17.13,3.93-.01,3.94Z"/>
        <path class="cls-8" d="m325.9,228.46c-.14.04-.45-1.07-1.49-1.91-1.02-.87-2.16-.98-2.15-1.13,0-.06.3-.13.77-.05.47.07,1.12.32,1.69.8.57.48.93,1.07,1.08,1.52.16.46.15.76.09.77Z"/>
        <path class="cls-8" d="m330.77,220.31c-.14.02-.31-1.1-1.23-2.06-.89-.98-2.01-1.23-1.98-1.37,0-.06.31-.09.77.04.46.13,1.06.45,1.57.99.5.54.78,1.16.88,1.63.1.47.05.77-.01.77Z"/>
        <path class="cls-8" d="m306.9,223.16c-.06.01-.22-.38-.24-1.05-.03-.67.13-1.61.61-2.52.49-.91,1.18-1.57,1.75-1.91.57-.35.98-.44,1-.38.08.13-1.43.82-2.32,2.53-.93,1.69-.66,3.33-.81,3.33Z"/>
        <g class="cls-11">
          <path d="m292.85,190.92c2.14,8.22,5.72,21.6,9.59,32.08.18.48.37.98.74,1.33.98.94,2.67.36,3.6-.63.88-.94,1.39-2.16,2.11-3.22.72-1.07,1.78-2.05,3.07-2.1,1.05-.04,2.03.58,2.72,1.37.69.79,1.15,1.75,1.67,2.66.28.49.63,1.02,1.18,1.13.55.11,1.16-.39.84-.99l-3.43-8.88s-1.57-6.51-7.02-5.5c-6.09,1.13-3.33,11.13-3.33,11.13,0,0-11.85-28.72-11.75-28.37Z"/>
        </g>
        <path class="cls-8" d="m318.54,222.91s-.12-.19-.29-.58c-.18-.39-.42-.97-.73-1.71-.62-1.56-1.47-3.72-2.52-6.37-.27-.67-.56-1.37-.87-2.09-.32-.72-.67-1.43-1.25-2.02-1.14-1.16-2.91-1.95-4.74-1.77-.89.12-1.83.48-2.5,1.12-.68.65-1.02,1.61-1.35,2.59-.32.94-.31,1.99-.21,3.04.1,1.05.31,2.12.56,3.18.1.39.19.78.28,1.14l-.47.14c-1.4-4.03-3.02-7.76-4.49-11.14-1.48-3.38-2.83-6.41-3.89-8.98-1.06-2.57-1.84-4.68-2.31-6.16-.25-.73-.4-1.32-.51-1.71-.11-.39-.16-.6-.14-.61.02,0,.1.19.23.58.14.38.32.95.6,1.68.52,1.45,1.35,3.54,2.45,6.08,1.1,2.55,2.48,5.56,3.98,8.93,1.5,3.37,3.13,7.1,4.54,11.16l-.47.14c-.09-.36-.19-.76-.28-1.15-.25-1.08-.47-2.16-.57-3.25-.1-1.08-.12-2.2.24-3.24.33-.98.7-2.02,1.48-2.77.79-.73,1.78-1.1,2.78-1.23,2.01-.19,3.87.68,5.09,1.94.62.64,1,1.43,1.3,2.15.31.73.59,1.44.85,2.11.99,2.67,1.8,4.85,2.38,6.42.27.72.48,1.3.65,1.75.15.4.22.61.2.62Z"/>
        <g class="cls-11">
          <path d="m319.02,222.67c-.21.14-.06.51.19.56.25.05.49-.09.69-.25,1.27-.99,1.99-2.51,2.88-3.84.9-1.34,2.21-2.62,3.82-2.63,1.71,0,3.08,1.43,3.93,2.91.84,1.49,1.42,3.17,2.64,4.38,6.12-8.98,11.02-18.8,14.51-29.09-2.01,1.39-3.32,3.55-4.58,5.65-3.25,5.42-6.49,10.83-9.74,16.25-.68-1.58-1.49-3.15-2.74-4.33-1.26-1.18-3.05-1.91-4.72-1.51-1.9.44-3.21,2.16-4.14,3.87-1.36,2.51-2.24,5.27-2.6,8.09"/>
        </g>
        <path class="cls-8" d="m446.73,302.78s-.26-.37-.65-1.09c-.39-.72-.93-1.77-1.56-3.09-1.27-2.63-2.88-6.34-4.39-10.54-1.5-4.2-2.61-8.09-3.31-10.93-.35-1.42-.6-2.57-.76-3.38-.16-.8-.23-1.25-.19-1.26.03,0,.17.43.38,1.21.24.88.54,2,.91,3.33.78,2.81,1.94,6.67,3.43,10.86,1.5,4.18,3.06,7.9,4.24,10.56.57,1.26,1.04,2.32,1.41,3.15.34.74.51,1.16.48,1.18Z"/>
        <path class="cls-8" d="m437.22,300.9s-.17-.38-.4-1.09c-.23-.71-.52-1.76-.84-3.06-.64-2.6-1.31-6.25-1.64-10.33-.32-4.08-.22-7.8,0-10.46.11-1.33.23-2.41.35-3.15.11-.74.19-1.15.22-1.14.03,0,.02.42-.03,1.16-.06.74-.13,1.82-.19,3.15-.13,2.66-.17,6.35.15,10.4.32,4.05.94,7.69,1.49,10.3.27,1.3.51,2.36.68,3.08.17.73.25,1.13.21,1.14Z"/>
        <path class="cls-8" d="m467.78,213.36s.25.07.77.29l.15.07-.16.06c-2.17.78-9.78,3.19-19.09,4.88-5.58,1.03-10.69,1.62-14.39,1.92-1.85.15-3.35.24-4.39.28-1.04.04-1.61.04-1.61,0,0-.03.57-.1,1.6-.2,1.12-.11,2.59-.26,4.37-.43,3.69-.39,8.77-1.03,14.33-2.06,9.28-1.69,16.91-3.94,19.14-4.52v.12c-.51-.26-.73-.39-.72-.41Z"/>
        <path class="cls-8" d="m459.16,209.02s.1-.16.41-.25c.3-.09.81-.04,1.28.28.45.31.96.94.83,1.78-.07.4-.35.79-.73,1-.38.22-.84.3-1.28.24-.44-.06-.86-.24-1.18-.55-.32-.31-.48-.75-.47-1.15.03-.83.59-1.37,1.07-1.64.5-.27.99-.29,1.29-.21.31.08.43.22.42.23-.01.09-.68-.29-1.53.27-.39.26-.8.75-.79,1.34-.02.6.54,1.12,1.26,1.2.7.1,1.39-.27,1.5-.84.12-.56-.23-1.11-.59-1.4-.37-.3-.77-.4-1.04-.37-.27.02-.42.1-.44.06Z"/>
        <path class="cls-3" d="m310.56,230.13s-.18.18-.55.48c-.38.29-.9.76-1.65,1.27-1.46,1.07-3.7,2.46-6.65,3.78-2.95,1.33-6.67,2.5-10.92,3.11-2.13.27-4.38.44-6.71.36-2.33-.08-4.74-.37-7.16-.89-4.84-1.09-9.2-2.88-13.3-3.98-2.05-.57-4.03-.97-5.9-1.16-1.87-.18-3.64-.14-5.22.05-3.18.39-5.61,1.47-7.08,2.49-1.48,1.01-2.12,1.8-2.17,1.75,0,0,.59-.83,2.06-1.91,1.45-1.08,3.91-2.24,7.14-2.68,1.61-.22,3.4-.27,5.31-.11,1.9.18,3.91.57,5.98,1.13,4.14,1.09,8.51,2.86,13.29,3.93,2.39.51,4.77.8,7.07.89,2.31.08,4.53-.07,6.64-.33,4.2-.57,7.89-1.69,10.84-2.97,2.95-1.28,5.2-2.61,6.68-3.62.76-.48,1.3-.93,1.7-1.19.39-.27.6-.41.61-.4Z"/>
        <path class="cls-3" d="m374.11,271.31s-.11-.04-.3-.14c-.22-.11-.5-.26-.86-.45-.38-.19-.87-.39-1.44-.65-.59-.2-1.25-.49-2.04-.69-3.1-.94-7.88-1.41-13.62-.5-2.87.42-5.97,1.2-9.27,2.1-3.3.9-6.82,1.95-10.61,2.72-3.78.78-7.88,1.19-12.08.74-4.21-.39-8.43-1.58-12.66-2.98-4.22-1.42-8.26-3.01-12.23-4.33-3.96-1.35-7.88-2.35-11.68-2.86-7.62-1.04-14.61-.26-20.24,1.1-2.82.69-5.3,1.57-7.45,2.41-1.06.46-2.05.87-2.94,1.3-.88.45-1.7.82-2.41,1.22-.71.39-1.34.75-1.89,1.06-.53.32-.98.6-1.35.83-.35.21-.62.38-.83.51-.19.11-.29.17-.29.16,0,0,.08-.08.27-.2.2-.14.47-.32.81-.55.36-.24.79-.54,1.33-.87.55-.32,1.17-.69,1.87-1.1.71-.41,1.53-.8,2.4-1.26.89-.44,1.88-.87,2.94-1.34,2.15-.86,4.64-1.77,7.48-2.49,5.65-1.42,12.7-2.24,20.38-1.21,3.84.5,7.79,1.51,11.77,2.86,3.99,1.32,8.03,2.91,12.24,4.32,4.2,1.39,8.39,2.57,12.55,2.96,4.15.46,8.19.06,11.94-.7,3.76-.75,7.28-1.78,10.59-2.67,3.31-.89,6.42-1.65,9.32-2.05,5.79-.88,10.62-.35,13.73.66.79.22,1.45.52,2.04.74.57.27,1.06.49,1.43.7.35.21.63.37.84.49.19.11.28.18.28.18Z"/>
        <path class="cls-3" d="m323.72,229.42c.02-.06.89.34,2.56.56,1.66.24,4.14.19,7.05-.56,2.93-.71,6.2-2.24,9.93-3.71,1.87-.73,3.89-1.41,6.05-1.8,2.16-.38,4.45-.54,6.77-.39,4.66.27,8.98,1.52,12.69,3.05,3.72,1.54,6.87,3.33,9.46,4.91,2.59,1.58,4.62,2.96,6.02,3.91.66.46,1.19.83,1.6,1.12.36.26.55.4.54.42,0,.01-.21-.1-.59-.33-.42-.26-.97-.61-1.65-1.04-1.43-.9-3.49-2.23-6.09-3.77-2.6-1.53-5.76-3.28-9.46-4.78-3.69-1.49-7.96-2.71-12.54-2.97-2.29-.14-4.53,0-6.66.37-2.13.38-4.11,1.04-5.98,1.75-3.71,1.45-7.03,2.95-10.01,3.63-2.97.72-5.49.72-7.17.42-1.69-.29-2.53-.75-2.53-.75Z"/>
        <path class="cls-3" d="m382.16,204.34s-.5.19-1.42.43c-.46.13-1.03.27-1.7.4-.67.13-1.42.31-2.27.43-1.69.29-3.72.52-5.98.64-2.26.1-4.76.09-7.36-.13-2.61-.23-5.07-.64-7.28-1.12-2.21-.51-4.17-1.07-5.78-1.64-.82-.26-1.53-.56-2.16-.81-.64-.24-1.17-.48-1.6-.68-.87-.4-1.34-.63-1.33-.67.01-.03.51.14,1.4.49.44.18.99.39,1.63.6.64.22,1.36.5,2.17.73,1.62.53,3.57,1.05,5.77,1.53,2.2.45,4.64.84,7.22,1.07,2.58.21,5.06.24,7.3.16,2.24-.1,4.26-.29,5.94-.53.85-.1,1.6-.25,2.27-.36.67-.1,1.24-.22,1.7-.32.93-.19,1.46-.28,1.46-.24Z"/>
        <path class="cls-3" d="m241.33,210.76s.14-.15.44-.39c.3-.24.73-.59,1.31-1.03,1.15-.88,2.84-2.12,4.99-3.56,4.29-2.87,10.51-6.6,18.1-8.94,7.6-2.34,14.98-2.42,20.06-1.4,2.55.49,4.56,1.14,5.9,1.69.68.25,1.18.52,1.53.67.34.16.52.26.51.27-.02.04-.75-.28-2.11-.76-1.35-.49-3.36-1.09-5.89-1.52-5.05-.92-12.34-.79-19.86,1.53-7.52,2.32-13.73,5.97-18.06,8.76-2.17,1.4-3.88,2.59-5.07,3.42-.56.39-1.01.7-1.37.95-.31.21-.49.32-.5.31Z"/>
        <path class="cls-3" d="m367.2,315.63s-.09.03-.28.08c-.22.05-.49.11-.84.18-.37.09-.83.16-1.38.21-.28.03-.57.06-.89.09-.32,0-.66.02-1.01.03-2.88.12-7.02-.62-11.88-2.19-2.44-.76-5.08-1.69-7.95-2.54-2.87-.85-6-1.51-9.35-1.81-6.7-.64-14.13.17-21.77,1.56-7.66,1.38-14.89,3.12-21.62,3.92-6.71.83-12.86.89-17.93.12-5.09-.69-9.01-2.23-11.56-3.49-.63-.33-1.2-.62-1.68-.89-.46-.29-.85-.54-1.18-.75-.3-.19-.53-.35-.72-.47-.16-.11-.24-.17-.23-.17,0,0,.09.04.26.13.19.11.44.25.74.43.33.2.73.43,1.2.7.5.25,1.06.53,1.7.84,2.57,1.2,6.47,2.68,11.53,3.32,5.04.72,11.15.63,17.83-.22,6.69-.82,13.91-2.57,21.59-3.95,7.66-1.4,15.14-2.2,21.9-1.53,3.37.32,6.54,1,9.42,1.87,2.88.87,5.51,1.82,7.94,2.6,4.84,1.6,8.92,2.39,11.77,2.33.35,0,.69,0,1.01,0,.31-.03.61-.05.88-.07.55-.03,1.01-.09,1.38-.16.35-.05.63-.1.84-.13.19-.03.29-.04.29-.03Z"/>
        <g class="cls-10">
          <path d="m279.09,322.52c4.53,11.31,13.3,19.34,25.37,21s24.28-1.1,36.03-4.3c-21.37-2.99-40.28-5.95-61.4-16.7"/>
        </g>
        <path class="cls-3" d="m370.26,353.62s-.1-.03-.3-.11c-.22-.09-.49-.21-.85-.36-.77-.34-1.85-.82-3.23-1.43-2.81-1.24-6.84-3.13-11.87-5.31-2.53-1.06-5.34-2.14-8.47-2.87-3.12-.74-6.59-.99-10.16-.47-1.78.26-3.59.67-5.4,1.23-1.8.57-3.61,1.26-5.41,2.05-3.61,1.57-7.2,3.54-10.9,5.52-3.7,1.98-7.38,3.81-11.12,5.17-3.73,1.35-7.52,2.23-11.19,2.28-3.68.1-7.13-.77-10.13-1.99-3.02-1.22-5.64-2.73-8.03-4.08-2.39-1.36-4.54-2.6-6.5-3.55-1.96-.94-3.69-1.68-5.16-2.1-.72-.26-1.39-.39-1.96-.53-.57-.15-1.06-.23-1.46-.28-.38-.06-.68-.11-.91-.14-.2-.04-.31-.06-.31-.07,0,0,.11,0,.31.02.23.02.54.06.92.1.4.04.9.1,1.48.24.58.13,1.26.24,1.99.49,1.49.39,3.24,1.12,5.23,2.04,1.98.93,4.15,2.16,6.55,3.5,2.4,1.33,5.02,2.82,8.01,4.01,2.98,1.19,6.36,2.03,9.97,1.91,3.61-.06,7.34-.93,11.04-2.28,3.7-1.35,7.36-3.18,11.05-5.15,3.69-1.98,7.29-3.95,10.94-5.52,1.82-.79,3.64-1.49,5.47-2.06,1.83-.55,3.66-.97,5.47-1.23,3.63-.52,7.16-.24,10.32.52,3.16.75,5.99,1.86,8.51,2.94,5.03,2.23,9.03,4.17,11.82,5.46,1.37.65,2.44,1.16,3.2,1.52.34.17.62.3.83.41.18.09.28.15.27.15Z"/>
      </g>
    </g>
  </g>
</svg>