<?xml version="1.0" encoding="UTF-8"?>
<svg xmlns="http://www.w3.org/2000/svg" viewBox="0 0 635.6 399.14">
  <defs>
    <style>
      .cls-1 {
        fill: #f5f5f5;
      }

      .cls-2, .cls-3 {
        fill: #fff;
      }

      .cls-4 {
        fill: #ffc3bd;
      }

      .cls-5 {
        fill: #ff7c76;
      }

      .cls-6 {
        fill: #1099d1;
      }

      .cls-7 {
        fill: #0d9bd3;
      }

      .cls-8 {
        fill: #0c2841;
      }

      .cls-9 {
        fill: #455a64;
      }

      .cls-10 {
        opacity: .4;
      }

      .cls-11 {
        opacity: .5;
      }

      .cls-12 {
        fill: #47ab34;
      }

      .cls-12, .cls-13, .cls-14, .cls-15, .cls-3 {
        fill-rule: evenodd;
      }

      .cls-13 {
        fill: #889098;
      }

      .cls-14 {
        fill: #236fb5;
      }

      .cls-15 {
        fill: #e20447;
      }
    </style>
  </defs>
  <g id="Device">
    <rect class="cls-8" x="82.64" y="125.67" width="408.03" height="269.83" rx="14.57" ry="14.57"/>
    <path class="cls-8" d="m66.15,375.53h442.07v5.81c0,9.82-7.97,17.8-17.8,17.8H83.95c-9.82,0-17.8-7.97-17.8-17.8v-5.81h0Z"/>
    <rect class="cls-1" x="94.17" y="136.39" width="384.98" height="227.86"/>
    <path class="cls-8" d="m247,375.53s.14,0,.42-.01c.31,0,.74,0,1.29-.01,1.17,0,2.86-.02,5.03-.03,4.42-.02,10.78-.04,18.65-.08,15.88-.03,37.85-.08,62.37-.13h.46s-.23.4-.23.4c-.78,1.34-1.63,2.79-2.48,4.24-.89,1.52-1.77,3.04-2.62,4.48l-.08.13h-.15c-33.92-.06-62.89-.12-77.19-.14h-.07s-.03-.06-.03-.06c-1.76-2.86-3.11-5.06-4.04-6.57-.44-.72-.78-1.27-1.02-1.67-.23-.37-.33-.55-.33-.55,0,0,.14.2.38.58.26.39.61.95,1.08,1.67.95,1.47,2.33,3.62,4.12,6.42l-.1-.06c14.3-.03,43.27-.08,77.19-.14l-.23.13c.85-1.45,1.73-2.96,2.62-4.48.85-1.45,1.69-2.9,2.48-4.24l.23.4c-24.42-.05-46.3-.1-62.11-.13-7.91-.03-14.3-.06-18.74-.08-2.2-.01-3.91-.02-5.11-.03-.57,0-1.01,0-1.34-.01-.3,0-.47-.01-.47-.01Z"/>
    <path class="cls-9" d="m490.67,375.53c0,.14-91.35.25-204,.25s-204.02-.11-204.02-.25,91.33-.25,204.02-.25,204,.11,204,.25Z"/>
  </g>
  <g id="Character">
    <g>
      <g>
        <path class="cls-8" d="m271.21,68.96c-6.29,2.76-9.95,9.54-11.33,16.28s-.92,13.69-1.52,20.54c-.6,6.85-2.47,14-7.47,18.72-4.66,4.4-11.51,6.19-15.48,11.21-2.94,3.73-3.81,9-2.21,13.48,1.6,4.48,5.61,8.01,10.25,9.03-3.14,4.97-1.57,11.91,2.45,16.2,4.01,4.29,9.91,6.34,15.72,7.22,10.22,1.56,21.12-.16,29.75-5.85,8.63-5.69,14.67-15.57,14.65-25.9"/>
        <path class="cls-9" d="m243.96,170.54s-.57-.71-1.11-2.23c-.54-1.51-.92-3.9-.4-6.75.26-1.42.73-2.94,1.44-4.48.74-1.53,1.71-3.07,2.89-4.56,2.34-3.01,5.49-5.78,8.65-8.75,3.16-2.99,6.06-5.96,8.41-8.9,2.38-2.91,4.17-5.82,5.38-8.38,1.21-2.57,1.86-4.79,2.18-6.35.19-.77.24-1.39.33-1.8.07-.41.12-.63.14-.63s0,.22-.04.64c-.06.42-.08,1.04-.24,1.83-.27,1.58-.87,3.84-2.06,6.46-1.19,2.61-2.96,5.57-5.34,8.52-2.35,2.98-5.26,5.98-8.43,8.98-3.18,2.99-6.31,5.73-8.63,8.68-1.17,1.46-2.14,2.97-2.88,4.46-.72,1.5-1.19,2.98-1.47,4.37-.55,2.78-.23,5.12.24,6.63.48,1.51.98,2.26.92,2.29Z"/>
      </g>
      <g>
        <path class="cls-8" d="m346.42,91.55c0,9.24,4.26,17.71,8.1,20.83,5.42,4.41,13.38,6.54,18.63,8,7.64,2.13,14.04,8.82,15,16.7.95,7.87-4.19,16.29-11.88,18.27,4.83,4.93,3.39,13.41-.58,19.05-7.53,10.69-22.56,14.8-35.03,10.85-12.47-3.95-22.02-15-25.74-27.54"/>
        <path class="cls-9" d="m365.43,182.57c-.03-.08,1.22-.08,2.94-1.29.84-.6,1.75-1.53,2.46-2.82.73-1.27,1.26-2.91,1.32-4.76.05-1.84-.5-3.86-1.55-5.76-1.05-1.91-2.6-3.7-4.49-5.27-3.78-3.19-8.93-5.18-13.91-8.05-2.48-1.46-4.78-3.14-6.61-5.19-.91-1.02-1.7-2.12-2.31-3.29-.61-1.17-1.03-2.41-1.29-3.64-.53-2.47-.48-4.87-.32-7.07.17-2.21.45-4.25.64-6.11.41-3.72.36-6.77-.14-8.8-.14-.5-.26-.94-.36-1.34-.11-.38-.27-.69-.36-.95-.2-.51-.3-.79-.29-.79.02,0,.14.25.38.75.11.25.28.56.41.94.12.4.26.84.41,1.34.57,2.05.67,5.14.3,8.88-.17,1.87-.43,3.91-.58,6.1-.14,2.19-.17,4.55.36,6.95.51,2.39,1.7,4.74,3.52,6.7,1.78,1.99,4.05,3.65,6.5,5.08,4.92,2.84,10.11,4.85,13.96,8.12,1.92,1.61,3.5,3.45,4.56,5.42,1.06,1.97,1.6,4.05,1.53,5.97-.08,1.91-.66,3.59-1.43,4.89-.76,1.31-1.71,2.24-2.59,2.84-.87.62-1.69.84-2.21,1.01-.55.1-.84.14-.84.13Z"/>
        <path class="cls-9" d="m383.43,151.74c-.09-.03.8-.76.93-2.57.04-.88-.13-1.99-.71-3.12-.57-1.12-1.49-2.3-2.83-3.13-1.36-.83-3.06-1.35-4.91-1.66-1.86-.32-3.89-.44-6.02-.77-4.26-.66-8.8-2.34-12.93-5.12-4.12-2.79-7.38-6.39-9.56-10.11-2.2-3.72-3.35-7.49-3.92-10.68-.57-3.21-.54-5.86-.41-7.67.07-.91.15-1.6.24-2.07.07-.47.12-.72.14-.71.06,0-.11,1-.19,2.8-.07,1.8-.05,4.43.56,7.59.61,3.15,1.79,6.86,3.97,10.51,2.16,3.65,5.38,7.18,9.44,9.93,4.07,2.73,8.54,4.4,12.73,5.08,2.1.34,4.13.47,6.02.82,1.88.33,3.63.88,5.03,1.77,1.41.89,2.33,2.13,2.9,3.31.58,1.18.73,2.34.66,3.25-.08.92-.41,1.58-.66,1.99-.13.2-.26.33-.34.43-.08.09-.12.14-.13.13Z"/>
      </g>
      <g>
        <g>
          <g>
            <path class="cls-4" d="m275.7,199.88c1.32-13.81,2.45-28.37,2.45-28.37,0,0-17.49-4.7-18.89-28.27-1.34-22.47,7.34-73.22,7.34-73.22h0c26.62-7.92,56.26,2.01,72.5,24.3h0l-12.54,111.98c-1.46,13-13.79,22.1-27.7,20.44h0c-14.05-1.68-24.41-13.7-23.15-26.86Z"/>
            <g>
              <path class="cls-8" d="m269.25,110.59c-.21,1.57.94,3.04,2.57,3.28,1.63.25,3.12-.81,3.33-2.38.21-1.57-.94-3.04-2.57-3.29-1.63-.25-3.12.82-3.33,2.38Z"/>
              <path class="cls-8" d="m264.75,106.78c.33.42,2.75-1.02,5.95-.7,3.2.28,5.39,2.16,5.78,1.8.19-.16-.12-.89-1.07-1.74-.93-.84-2.58-1.73-4.58-1.92-2-.19-3.75.38-4.78,1.04-1.06.66-1.46,1.33-1.3,1.52Z"/>
            </g>
            <g>
              <path class="cls-8" d="m301.97,114.38c-.21,1.57.94,3.04,2.57,3.28,1.63.25,3.12-.81,3.33-2.38.21-1.57-.94-3.04-2.57-3.29-1.63-.25-3.12.82-3.33,2.38Z"/>
              <path class="cls-8" d="m298.05,111.23c.33.42,2.75-1.02,5.95-.7,3.2.28,5.39,2.16,5.78,1.8.19-.16-.12-.89-1.07-1.74-.93-.84-2.58-1.73-4.58-1.92-2-.19-3.75.38-4.78,1.04-1.06.66-1.46,1.33-1.3,1.52Z"/>
            </g>
            <path class="cls-8" d="m284.09,133.84c.03-.18-1.92-.72-5.11-1.45-.81-.17-1.57-.4-1.65-.98-.13-.61.29-1.46.78-2.37.96-1.9,1.97-3.9,3.03-5.99,4.23-8.53,7.38-15.58,7.03-15.75-.35-.17-4.05,6.61-8.28,15.15-1.02,2.11-2,4.11-2.93,6.04-.4.9-1.04,1.9-.74,3.17.16.63.72,1.14,1.23,1.33.51.21.97.27,1.37.33,3.23.49,5.24.71,5.27.53Z"/>
            <path class="cls-5" d="m278.15,171.51s15.51,2.54,31.89-5.23c0,0-9.11,15.2-32.12,10.74l.23-5.51Z"/>
            <path class="cls-5" d="m284.69,141.69c1.3-1.41,3.4-2.05,5.38-1.63,1.38.29,2.71,1.09,3.45,2.31.73,1.21.75,2.84-.12,3.84-.98,1.13-2.82,1.23-4.3.65-1.49-.58-2.7-1.72-3.85-2.85-.32-.31-.64-.64-.82-1.04-.18-.4-.18-.9.12-1.19"/>
            <path class="cls-8" d="m293.3,136.98c-.52-.08-.87,3.39-4.08,5.57-3.21,2.18-6.88,1.43-6.96,1.91-.07.21.76.76,2.32.95,1.53.2,3.82-.07,5.79-1.4,1.96-1.33,2.94-3.28,3.2-4.69.28-1.44-.03-2.34-.27-2.34Z"/>
          </g>
          <path class="cls-4" d="m328.05,119.08c2.53-.24,5.14.09,7.42,1.21,2.28,1.12,4.19,3.09,4.98,5.5.8,2.42.43,5.12-.67,7.42-1.09,2.3-2.86,4.22-4.84,5.82-1.42,1.15-3.01,2.17-4.8,2.55-1.79.37-3.82,0-5.09-1.31"/>
          <path class="cls-5" d="m327.94,134.26c-.29.06.64,1.67,2.97,1.28,1.12-.18,2.28-1.04,3.04-2.17.77-1.16,1.32-2.45,1.64-4,.31-1.53.12-3.21-.62-4.47-.7-1.27-1.96-2.11-3.07-2.25-2.33-.28-3.21,1.26-2.95,1.34.17.21,1.16-.54,2.65-.02,1.44.41,2.68,2.57,2.11,5.05-.53,2.53-1.74,4.77-3.16,5.22-1.48.58-2.44-.17-2.62.02Z"/>
        </g>
        <path class="cls-8" d="m277.81,79.95c-3.42,7.95-10.74,14.1-19.15,16.13-.5-5.73-.83-11.53.11-17.2.94-5.67,3.25-11.27,7.38-15.26,4.14-3.99,10.27-6.14,15.83-4.66"/>
      </g>
      <path class="cls-8" d="m279.41,69.43c-2.89,7.26-1.7,15.99,3.02,22.22,4.72,6.23,12.8,9.73,20.57,8.91,1.52-.16,3.12-.46,4.54.09,1.53.59,2.53,2.02,3.44,3.38,3.7,5.53,7.61,11.27,13.43,14.47,5.83,3.2,14.17,2.89,18.07-2.5,1.9-2.62,2.45-5.95,2.89-9.16,1.48-10.77,2.08-22.34-3.05-31.92-3.81-7.12-10.51-12.42-17.93-15.63-7.41-3.21-15.53-4.49-23.59-4.98-4.69-.29-9.54-.29-13.88,1.48s-8.1,5.72-8.35,10.41"/>
      <path class="cls-9" d="m344.35,109.88s-.11-.27-.28-.79c-.16-.53-.43-1.29-.78-2.27-.73-1.95-1.95-4.72-3.95-7.86-2.01-3.12-4.85-6.59-8.67-9.68-3.81-3.12-8.65-5.62-13.89-7.82-5.25-2.2-10.37-4.01-14.86-6.11-4.49-2.08-8.32-4.44-11.21-6.84-2.88-2.41-4.82-4.79-5.94-6.56-.56-.89-.96-1.59-1.19-2.1-.25-.49-.37-.76-.35-.76.02,0,.17.24.44.72.26.49.69,1.17,1.26,2.04,1.16,1.72,3.12,4.04,6.01,6.39,2.89,2.34,6.7,4.65,11.18,6.7,4.47,2.07,9.6,3.86,14.86,6.07,5.25,2.2,10.15,4.75,13.98,7.92,3.85,3.14,6.69,6.67,8.68,9.84,1.98,3.19,3.16,6.01,3.83,7.98.33.99.57,1.77.7,2.31.14.53.2.81.19.82Z"/>
      <path class="cls-9" d="m337.14,108.61s-.15-.22-.39-.66c-.25-.43-.63-1.07-1.19-1.84-1.1-1.54-2.98-3.6-5.76-5.56-2.76-1.99-6.41-3.78-10.56-5.54-2.07-.89-4.26-1.81-6.48-2.87-2.22-1.06-4.48-2.25-6.72-3.59-4.49-2.68-8.46-5.75-11.65-8.98-3.2-3.22-5.6-6.57-7.27-9.56-1.69-2.99-2.64-5.61-3.2-7.44-.26-.92-.45-1.64-.55-2.13-.11-.49-.15-.75-.14-.76.02,0,.1.25.23.73.13.49.35,1.19.63,2.1.61,1.8,1.61,4.38,3.32,7.32,1.7,2.94,4.11,6.23,7.29,9.41,3.18,3.18,7.12,6.22,11.58,8.88,2.23,1.33,4.47,2.51,6.68,3.58,2.21,1.06,4.39,1.98,6.46,2.89,4.14,1.79,7.82,3.63,10.58,5.68,2.78,2.02,4.65,4.14,5.71,5.73.54.79.9,1.45,1.12,1.9.22.46.32.7.31.71Z"/>
      <path class="cls-9" d="m258.74,105.29s-.09-.18-.23-.53c-.13-.36-.33-.88-.55-1.57-.37-1.39-.89-3.44-1-6.04-.11-2.58.09-5.71,1.03-9.02.94-3.29,2.49-6.82,4.96-9.93,1.19-1.59,2.61-2.93,4.02-4.15,1.45-1.18,2.94-2.19,4.36-3.12,2.86-1.86,5.41-3.56,7.22-5.37,1.84-1.78,2.96-3.56,3.53-4.87.58-1.31.71-2.1.76-2.09.02,0-.01.2-.09.57-.08.37-.23.92-.5,1.59-.53,1.35-1.62,3.2-3.46,5.04-1.81,1.87-4.38,3.63-7.21,5.5-1.41.95-2.89,1.95-4.31,3.12-1.38,1.2-2.77,2.52-3.94,4.08-2.43,3.05-3.97,6.51-4.91,9.75-.95,3.25-1.18,6.33-1.12,8.88.07,2.57.53,4.6.84,6,.19.65.34,1.18.46,1.59.1.37.15.56.13.57Z"/>
      <g>
        <g>
          <path class="cls-7" d="m316.05,151.56c-5.42,0-10.85-1.85-14.86-5.45l.64-.71c6.95,6.25,18.41,6.98,26.1,1.65,7.68-5.33,11.02-16.32,7.6-25.02l.88-.35c3.58,9.09.09,20.58-7.94,26.15-3.6,2.5-8.01,3.73-12.42,3.73Z"/>
          <path class="cls-7" d="m308.32,147.49c0,2.54-2.06,4.61-4.61,4.61s-4.61-2.06-4.61-4.61,2.06-4.61,4.61-4.61,4.61,2.06,4.61,4.61Z"/>
        </g>
        <circle class="cls-7" cx="339.09" cy="124.07" r="15.43" transform="translate(174.67 445.54) rotate(-83.01)"/>
        <path class="cls-7" d="m336.59,121.92c-.1-.01-.06-1.41.09-3.91.05-1.27.11-2.8.18-4.57.02-1.78.08-3.81,0-6.05,0-1.12-.08-2.29-.14-3.51-.04-1.22-.18-2.48-.31-3.79-.1-1.31-.35-2.64-.52-4.03-.13-.69-.26-1.38-.39-2.09-.12-.71-.27-1.42-.46-2.13-1.31-5.71-3.77-11.83-8.08-17.01-4.3-5.19-9.93-8.67-15.38-10.78-5.47-2.14-10.73-3.17-15.15-3.81-4.43-.62-8.06-.81-10.57-.98-2.51-.11-3.9-.22-3.9-.32,0-.1,1.39-.19,3.91-.26,2.52,0,6.18.03,10.68.52,4.49.51,9.86,1.44,15.51,3.57,5.63,2.1,11.53,5.68,16.03,11.11,4.5,5.41,7.01,11.8,8.27,17.66.18.73.33,1.46.44,2.18.12.72.25,1.43.36,2.14.15,1.41.38,2.78.46,4.11.1,1.33.21,2.61.22,3.85.04,1.24.08,2.42.05,3.55,0,2.26-.13,4.3-.23,6.09-.15,1.79-.29,3.33-.43,4.58-.33,2.5-.56,3.88-.67,3.87Z"/>
        <g class="cls-10">
          <path d="m350.14,124.07c0,5.87-4.76,10.62-10.62,10.62s-10.62-4.75-10.62-10.62,4.76-10.62,10.62-10.62,10.62,4.76,10.62,10.62Z"/>
        </g>
        <path class="cls-8" d="m336.02,114.16s.16-.1.47-.25c.32-.14.81-.31,1.47-.44,1.29-.23,3.37-.24,5.51.94,1.05.58,2.1,1.48,2.83,2.71.75,1.22,1.15,2.75,1.14,4.36-.01,1.6-.51,3.31-1.57,4.72-1.06,1.41-2.68,2.44-4.49,2.87-1.8.44-3.72.28-5.31-.48-1.6-.76-2.8-2.07-3.54-3.49-.74-1.43-1.02-2.99-.91-4.41.13-1.43.67-2.68,1.31-3.7,1.3-2.05,3.1-3.11,4.4-3.43.65-.18,1.18-.19,1.53-.17.35.03.53.06.53.08,0,.07-.75-.11-2.01.28-1.24.36-2.93,1.43-4.15,3.43-.6.99-1.09,2.2-1.2,3.55-.09,1.35.19,2.82.9,4.17.71,1.34,1.85,2.56,3.34,3.26,1.49.7,3.28.86,4.99.44,1.7-.41,3.23-1.37,4.22-2.69,1-1.31,1.47-2.92,1.5-4.43.03-1.52-.34-2.98-1.03-4.14-.67-1.17-1.65-2.05-2.65-2.62-2.02-1.18-4.03-1.22-5.31-1.06-1.3.19-1.96.55-1.98.49Z"/>
        <path class="cls-8" d="m339.42,134.53c-.13.02-.43-1.09-.48-2.51-.06-1.41.14-2.55.28-2.54.14.01.16,1.14.22,2.52.05,1.38.13,2.5-.01,2.53Z"/>
        <path class="cls-8" d="m345.28,132.47c-.13.05-.62-.91-1.1-2.15-.48-1.24-.77-2.28-.64-2.33.13-.05.62.91,1.1,2.15.48,1.24.77,2.28.64,2.33Z"/>
        <path class="cls-8" d="m349.23,127.85c-.09.1-.82-.41-1.63-1.14-.81-.73-1.38-1.41-1.29-1.51.09-.1.82.41,1.63,1.14.81.73,1.38,1.41,1.29,1.51Z"/>
        <path class="cls-8" d="m349.51,121.4c-.05.13-.57.06-1.18-.16-.6-.22-1.06-.5-1.01-.63.05-.13.57-.06,1.18.16.6.22,1.06.5,1.01.63Z"/>
        <path class="cls-8" d="m332.49,132.15c-.13-.04.15-1.17.8-2.44.65-1.27,1.4-2.15,1.51-2.07.12.08-.44,1.06-1.07,2.3-.63,1.23-1.11,2.26-1.24,2.21Z"/>
        <path class="cls-8" d="m329.32,126.74c-.1-.1.51-.85,1.35-1.67.84-.83,1.6-1.41,1.7-1.32.1.1-.51.85-1.35,1.67-.84.82-1.6,1.41-1.7,1.32Z"/>
        <path class="cls-8" d="m331.8,119.38c.04.13-.4.36-.96.51-.57.15-1.05.17-1.09.03-.03-.13.4-.36.96-.51.57-.15,1.05-.17,1.09-.03Z"/>
      </g>
    </g>
    <g>
      <path class="cls-4" d="m412.51,203.8c-1-5.65-3.21-8.72-4.85-10.33-1.55-1.51-3.04-3.08-4.89-4.2-2.24-1.37-5.29-3.06-7.24-3.48-2.41-.52-3-3.66-.98-4.55,2.02-.89,8.7.38,15.13,5.11,6.42,4.73,3.18-7.24,2.07-11.63-1.11-4.38-3.89-18.08-2.8-19.45,1.59-2.01,4.1-.64,5.1,3.75,1.01,4.45,4.94,17.4,7.24,16.77,2.26-.62-3.67-22.86-3.67-22.86,0,0-2.04-4.57.59-5.39,4.74-1.48,9.3,22.57,9.68,24.87.26,1.6,2.79,1,2.41-.7-.38-1.75-6.44-22.05-1.63-23.61,3.69-1.19,3.94,19.76,7.54,23.33,3.61,3.57-1.82-15.91,1.76-16.9,1.33-.37,2.38-.46,3.87,11.13.8,6.23.28,14.82,2.71,26.71"/>
      <g>
        <path class="cls-4" d="m400.52,248.52l21.86,31.37-10.5-80.9,31.25-12.32s39.44,151.19-13.46,153.32c0,0-36.6-1-63.92-64.37l34.77-27.1Z"/>
        <path class="cls-5" d="m435.58,186.07c.06.08-.68.57-1.65,1.65-.95,1.06-2.1,2.8-2.56,5.04l-.12.59-.43-.43c-.49-.49-1.02-.98-1.62-1.42-2.27-1.68-4.81-2.39-6.64-2.58-1.85-.2-3.01,0-3.03-.11-.02-.07,1.13-.44,3.06-.36,1.91.07,4.61.74,7,2.51.63.46,1.19.98,1.69,1.5l-.56.16c.53-2.39,1.82-4.17,2.9-5.2,1.09-1.04,1.92-1.41,1.95-1.36Z"/>
      </g>
    </g>
    <path class="cls-7" d="m384.82,313.93l-26.45-33.56-6.87,34.32c-2.78,13.9-1.35,28.32,4.12,41.4l3.41,8.16h-122.48l3.06-10.9c1.73-13.36-.59-27.31-.18-46.44l-3.4-21.57-18.53,78.92h-54.47s29.9-122.49,48.63-146.73c23.61-30.56,64.87-26.53,64.87-26.53l25.28,39.62,24.68-35.72s42.42-9.02,75.54,48l17.72,30.37h0l-8.23-62.53,38.35-8.85s13.85,61.43,12.94,94.33c-.81,29.38-13.32,44.8-30.65,46.31-27.24,2.38-47.33-28.6-47.33-28.6Z"/>
    <path class="cls-7" d="m276.52,191l.43-4.93s18.72,4.16,25,36.85c0,0,6.3-30.17,26.46-33.21l3.4,8.69-12.38,32.24-21.75,6.36-21.15-6.36-9.62-19.11,9.61-20.53Z"/>
    <path class="cls-8" d="m224.34,204s.05.29.1.85c.04.6.1,1.41.18,2.43.14,2.11.36,5.17.66,8.94.6,7.55,1.64,17.95,3.27,29.39,1.64,11.44,3.56,21.72,5.1,29.13.77,3.71,1.41,6.7,1.87,8.77.22,1,.39,1.8.51,2.38.11.55.16.84.15.84-.02,0-.1-.28-.24-.82-.15-.58-.35-1.37-.6-2.36-.52-2.05-1.22-5.04-2.03-8.74-1.63-7.4-3.61-17.68-5.25-29.13-1.63-11.45-2.61-21.87-3.13-29.43-.26-3.78-.43-6.84-.5-8.96-.03-1.02-.06-1.84-.08-2.44-.01-.56-.01-.85,0-.85Z"/>
    <path class="cls-8" d="m331.35,193.73s-.08.17-.27.47c-.22.34-.5.77-.84,1.3-.77,1.18-1.83,2.8-3.12,4.76-2.62,4.03-6.16,9.65-9.83,15.99-.15.25-.29.5-.42.73l-.24.41-.2-.43c-.75-1.61-1.52-3.18-2.69-4.33-1.15-1.14-2.71-1.83-4.17-1.56-1.46.23-2.62,1.23-3.44,2.26-.83,1.05-1.36,2.2-1.72,3.3-.71,2.19-1.12,4.04-1.64,5.24-.24.61-.49,1.05-.65,1.35-.18.29-.28.44-.3.43-.04-.02.34-.63.78-1.85.46-1.21.82-3.04,1.49-5.28.34-1.12.87-2.33,1.72-3.44.84-1.09,2.06-2.18,3.68-2.45,1.63-.32,3.36.45,4.58,1.66,1.25,1.22,2.04,2.85,2.8,4.46l-.44-.02c.13-.23.28-.48.42-.73,3.68-6.35,7.27-11.95,9.97-15.94,1.35-1.99,2.46-3.59,3.25-4.68.37-.51.68-.92.92-1.25.21-.28.33-.42.35-.41Z"/>
    <path class="cls-8" d="m313.52,212.24s-.06.15-.2.42c-.18.31-.4.7-.66,1.16-.63,1.06-1.48,2.49-2.51,4.22-1.09,1.79-2.37,3.89-3.78,6.22-.72,1.17-1.47,2.39-2.25,3.66-.4.64-.8,1.29-1.21,1.94-.12.17-.26.34-.47.48-.21.14-.52.19-.76.1-.5-.16-.75-.61-.95-.91-3.52-5.29-6.13-10.39-8.19-13.98-1.01-1.81-1.84-3.26-2.43-4.26-.58-1-.91-1.55-.88-1.57.01,0,.11.12.29.37.17.25.44.62.75,1.11.64.97,1.52,2.4,2.57,4.18,2.13,3.55,4.8,8.63,8.29,13.88.22.34.42.63.69.71.24.09.48-.1.69-.39.4-.65.8-1.29,1.2-1.91.79-1.26,1.55-2.48,2.27-3.65,1.45-2.3,2.76-4.39,3.87-6.16,1.09-1.7,1.98-3.09,2.65-4.13.3-.44.54-.81.74-1.11.17-.25.27-.38.29-.37Z"/>
    <path class="cls-8" d="m381.34,215.14s-.08.23-.28.65c-.23.46-.53,1.07-.9,1.83-.8,1.58-1.92,3.88-3.26,6.74-1.35,2.86-2.87,6.31-4.47,10.17-1.58,3.87-3.23,8.16-4.8,12.72-1.56,4.57-2.9,8.96-4.04,12.99-1.11,4.03-2.04,7.68-2.73,10.76-.71,3.08-1.24,5.59-1.58,7.32-.17.83-.31,1.49-.41,1.99-.1.46-.16.69-.18.69-.02,0,.01-.25.08-.71.08-.51.19-1.18.32-2.01.28-1.75.76-4.27,1.43-7.36.65-3.1,1.54-6.77,2.63-10.81,1.11-4.04,2.45-8.45,4.01-13.02,1.58-4.57,3.24-8.86,4.85-12.73,1.63-3.86,3.18-7.3,4.57-10.14,1.38-2.85,2.55-5.13,3.41-6.68.41-.74.74-1.34.98-1.79.23-.41.36-.61.37-.61Z"/>
    <path class="cls-8" d="m363.24,286.55s.03-.25.14-.72c.13-.51.3-1.19.51-2.04.46-1.82,1.11-4.36,1.9-7.48,1.61-6.32,3.74-15.07,6.36-24.67,1.32-4.8,2.67-9.35,3.99-13.46,1.33-4.1,2.61-7.77,3.79-10.82.56-1.53,1.14-2.89,1.63-4.09.48-1.2.93-2.23,1.31-3.06.36-.8.65-1.43.87-1.91.2-.43.32-.66.33-.65s-.07.25-.24.69c-.2.49-.46,1.14-.78,1.95-.35.84-.77,1.87-1.23,3.08-.46,1.21-1.01,2.57-1.55,4.11-1.14,3.05-2.37,6.73-3.68,10.83-1.28,4.11-2.62,8.66-3.94,13.45-2.62,9.59-4.81,18.33-6.5,24.63-.84,3.15-1.54,5.69-2.05,7.45-.25.84-.45,1.51-.6,2.01-.14.46-.22.7-.24.69Z"/>
    <path class="cls-8" d="m235.38,284.91s-.19-.2-.52-.6c-.32-.41-.83-.99-1.4-1.81-1.18-1.59-2.75-4.02-4.37-7.18-1.63-3.16-3.23-7.09-4.58-11.59-1.36-4.5-2.43-9.57-3.19-14.93-1.46-10.75-1.7-20.56-2.14-27.63-.2-3.54-.38-6.4-.53-8.37-.07-.95-.12-1.71-.17-2.28-.03-.52-.04-.8-.03-.8s.06.27.13.79c.06.52.16,1.28.26,2.27.21,1.97.45,4.83.69,8.37.53,7.07.83,16.87,2.28,27.58.76,5.34,1.81,10.39,3.13,14.87,1.32,4.48,2.88,8.41,4.46,11.57,1.57,3.17,3.08,5.61,4.21,7.23.54.83,1.03,1.43,1.32,1.86.3.42.46.65.44.66Z"/>
    <path class="cls-8" d="m230.73,262.89c.03.15-1.42.46-2.96,1.37-1.55.89-2.53,2-2.64,1.91-.11-.07.75-1.38,2.39-2.34,1.63-.97,3.2-1.07,3.21-.95Z"/>
    <path class="cls-8" d="m229.8,250.05c.02.15-1.8.31-3.73,1.34-1.95,1.01-3.11,2.42-3.22,2.32-.11-.05.93-1.68,2.99-2.75,2.05-1.09,3.98-1.03,3.96-.91Z"/>
    <path class="cls-8" d="m226.99,238.31c0,.15-1.43.22-2.96,1-1.55.75-2.47,1.85-2.59,1.76-.11-.06.7-1.38,2.37-2.2,1.66-.83,3.21-.68,3.18-.56Z"/>
    <path class="cls-8" d="m225.62,226.19c.02.14-1.25.39-2.69,1.01-1.45.61-2.5,1.36-2.59,1.25-.09-.09.87-1.06,2.4-1.7,1.52-.65,2.88-.68,2.89-.55Z"/>
    <path class="cls-8" d="m224.83,216.39c.02.15-1.27.38-2.7,1.06-1.44.67-2.44,1.51-2.54,1.4-.1-.08.8-1.14,2.33-1.85,1.52-.72,2.91-.74,2.91-.61Z"/>
    <path class="cls-8" d="m365.81,271.57c-.12.08-.77-.79-1.96-1.26-1.18-.5-2.26-.32-2.29-.47-.06-.12,1.12-.55,2.47,0,1.36.54,1.9,1.68,1.78,1.72Z"/>
    <path class="cls-8" d="m369.53,261.56c-.13.06-.65-1.43-2.2-2.41-1.53-1.02-3.1-.87-3.1-1.02,0-.06.37-.19,1.01-.17.64.02,1.53.24,2.36.77.83.54,1.39,1.26,1.67,1.83.28.58.32.98.26.99Z"/>
    <path class="cls-8" d="m372.32,250.56c-.12.09-.92-1.15-2.53-1.76-1.59-.65-3.02-.3-3.05-.45-.02-.06.32-.23.91-.32.59-.09,1.45-.03,2.32.31.86.34,1.52.89,1.9,1.36.38.47.5.83.45.86Z"/>
    <path class="cls-8" d="m375.6,239.98c-.13.07-.65-.91-1.8-1.5-1.14-.62-2.24-.5-2.26-.64-.01-.06.26-.18.72-.21.46-.03,1.13.08,1.77.41.64.34,1.1.83,1.34,1.23.24.4.29.69.23.72Z"/>
    <path class="cls-8" d="m379.45,230.27c-.13.07-.66-1.12-2.03-1.72-1.35-.65-2.6-.29-2.63-.43-.02-.05.26-.24.79-.33.53-.09,1.3-.04,2.05.31.75.35,1.29.9,1.56,1.36.28.46.32.8.26.82Z"/>
    <path class="cls-8" d="m316.59,216.39s-.06.17-.21.46c-.19.34-.42.76-.7,1.28-.62,1.1-1.54,2.69-2.7,4.64-1.16,1.95-2.56,4.25-4.16,6.78-.8,1.26-1.66,2.58-2.57,3.93-.92,1.35-1.87,2.74-3.03,4.07-.3.33-.58.65-1.03.92-.11.08-.27.1-.44.09-.16,0-.25-.08-.38-.12-.21-.12-.4-.24-.57-.39-.68-.56-1.22-1.2-1.75-1.83-1.05-1.26-1.97-2.54-2.84-3.77-1.72-2.46-3.18-4.73-4.39-6.64-1.2-1.92-2.15-3.49-2.79-4.58-.29-.51-.53-.93-.72-1.27-.16-.29-.24-.45-.22-.46.01,0,.12.13.31.41.21.33.48.73.8,1.22.73,1.12,1.72,2.64,2.92,4.49,1.24,1.89,2.73,4.14,4.47,6.57.87,1.21,1.8,2.48,2.83,3.72.52.61,1.07,1.24,1.69,1.75.3.24.68.51.86.36.28-.17.6-.49.87-.8,1.11-1.28,2.07-2.68,2.99-4.01.92-1.34,1.78-2.65,2.59-3.91,1.62-2.51,3.05-4.8,4.25-6.72,1.17-1.88,2.12-3.42,2.83-4.55.32-.5.57-.9.78-1.23.18-.28.29-.42.3-.41Z"/>
    <path class="cls-8" d="m295.28,230.62c-.06,0-.18-.34-.13-.91.04-.57.29-1.36.84-2.06.55-.7,1.26-1.13,1.81-1.3.55-.18.91-.14.92-.08.04.14-1.35.39-2.34,1.69-1.03,1.26-.96,2.67-1.1,2.67Z"/>
    <path class="cls-8" d="m301.85,238.5c-.13.02-.47-1.74-.48-3.94-.02-2.2.3-3.96.43-3.95.14.02.05,1.78.07,3.94.01,2.17.13,3.93-.01,3.94Z"/>
    <path class="cls-8" d="m309.31,228.46c-.14.04-.45-1.07-1.49-1.91-1.02-.87-2.16-.98-2.15-1.13,0-.06.3-.13.77-.05.47.07,1.12.32,1.69.8.57.48.93,1.07,1.08,1.52.16.46.15.76.09.77Z"/>
    <path class="cls-8" d="m314.18,220.31c-.14.02-.31-1.1-1.23-2.06-.89-.98-2.01-1.23-1.98-1.37,0-.06.31-.09.77.04.46.13,1.06.45,1.57.99.5.54.78,1.16.88,1.63.1.47.05.77-.01.77Z"/>
    <path class="cls-8" d="m290.31,223.16c-.06.01-.22-.38-.24-1.05-.03-.67.13-1.61.61-2.52.49-.91,1.18-1.57,1.75-1.91.57-.35.98-.44,1-.38.08.13-1.43.82-2.32,2.53-.93,1.69-.66,3.33-.81,3.33Z"/>
    <path d="m276.26,190.92c2.14,8.22,5.72,21.6,9.59,32.08.18.48.37.98.74,1.33.98.94,2.67.36,3.6-.63.88-.94,1.39-2.16,2.11-3.22.72-1.07,1.78-2.05,3.07-2.1,1.05-.04,2.03.58,2.72,1.37.69.79,1.15,1.75,1.67,2.66.28.49.63,1.02,1.18,1.13.55.11,1.16-.39.84-.99l-3.43-8.88s-1.57-6.51-7.02-5.5c-6.09,1.13-3.33,11.13-3.33,11.13,0,0-11.85-28.72-11.75-28.37Z"/>
    <path class="cls-8" d="m301.95,222.91s-.12-.19-.29-.58c-.18-.39-.42-.97-.73-1.71-.62-1.56-1.47-3.72-2.52-6.37-.27-.67-.56-1.37-.87-2.09-.32-.72-.67-1.43-1.25-2.02-1.14-1.16-2.91-1.95-4.74-1.77-.89.12-1.83.48-2.5,1.12-.68.65-1.02,1.61-1.35,2.59-.32.94-.31,1.99-.21,3.04.1,1.05.31,2.12.56,3.18.1.39.19.78.28,1.14l-.47.14c-1.4-4.03-3.02-7.76-4.49-11.14-1.48-3.38-2.83-6.41-3.89-8.98-1.06-2.57-1.84-4.68-2.31-6.16-.25-.73-.4-1.32-.51-1.71-.11-.39-.16-.6-.14-.61.02,0,.1.19.23.58.14.38.32.95.6,1.68.52,1.45,1.35,3.54,2.45,6.08,1.1,2.55,2.48,5.56,3.98,8.93,1.5,3.37,3.13,7.1,4.54,11.16l-.47.14c-.09-.36-.19-.76-.28-1.15-.25-1.08-.47-2.16-.57-3.25-.1-1.08-.12-2.2.24-3.24.33-.98.7-2.02,1.48-2.77.79-.73,1.78-1.1,2.78-1.23,2.01-.19,3.87.68,5.09,1.94.62.64,1,1.43,1.3,2.15.31.73.59,1.44.85,2.11.99,2.67,1.8,4.85,2.38,6.42.27.72.48,1.3.65,1.75.15.4.22.61.2.62Z"/>
    <path d="m302.43,222.67c-.21.14-.06.51.19.56.25.05.49-.09.69-.25,1.27-.99,1.99-2.51,2.88-3.84.9-1.34,2.21-2.62,3.82-2.63,1.71,0,3.08,1.43,3.93,2.91.84,1.49,1.42,3.17,2.64,4.38,6.12-8.98,11.02-18.8,14.51-29.09-2.01,1.39-3.32,3.55-4.58,5.65-3.25,5.42-6.49,10.83-9.74,16.25-.68-1.58-1.49-3.15-2.74-4.33-1.26-1.18-3.05-1.91-4.72-1.51-1.9.44-3.21,2.16-4.14,3.87-1.36,2.51-2.24,5.27-2.6,8.09"/>
    <path class="cls-8" d="m430.14,302.78s-.26-.37-.65-1.09c-.39-.72-.93-1.77-1.56-3.09-1.27-2.63-2.88-6.34-4.39-10.54-1.5-4.2-2.61-8.09-3.31-10.93-.35-1.42-.6-2.57-.76-3.38-.16-.8-.23-1.25-.19-1.26.03,0,.17.43.38,1.21.24.88.54,2,.91,3.33.78,2.81,1.94,6.67,3.43,10.86,1.5,4.18,3.06,7.9,4.24,10.56.57,1.26,1.04,2.32,1.41,3.15.34.74.51,1.16.48,1.18Z"/>
    <path class="cls-8" d="m420.63,300.9s-.17-.38-.4-1.09c-.23-.71-.52-1.76-.84-3.06-.64-2.6-1.31-6.25-1.64-10.33-.32-4.08-.22-7.8,0-10.46.11-1.33.23-2.41.35-3.15.11-.74.19-1.15.22-1.14.03,0,.02.42-.03,1.16-.06.74-.13,1.82-.19,3.15-.13,2.66-.17,6.35.15,10.4.32,4.05.94,7.69,1.49,10.3.27,1.3.51,2.36.68,3.08.17.73.25,1.13.21,1.14Z"/>
    <path class="cls-8" d="m451.19,213.36s.25.07.77.29l.15.07-.16.06c-2.17.78-9.78,3.19-19.09,4.88-5.58,1.03-10.69,1.62-14.39,1.92-1.85.15-3.35.24-4.39.28-1.04.04-1.61.04-1.61,0,0-.03.57-.1,1.6-.2,1.12-.11,2.59-.26,4.37-.43,3.69-.39,8.77-1.03,14.33-2.06,9.28-1.69,16.91-3.94,19.14-4.52v.12c-.51-.26-.73-.39-.72-.41Z"/>
    <path class="cls-8" d="m442.58,209.02s.1-.16.41-.25c.3-.09.81-.04,1.28.28.45.31.96.94.83,1.78-.07.4-.35.79-.73,1-.38.22-.84.3-1.28.24-.44-.06-.86-.24-1.18-.55-.32-.31-.48-.75-.47-1.15.03-.83.59-1.37,1.07-1.64.5-.27.99-.29,1.29-.21.31.08.43.22.42.23-.01.09-.68-.29-1.53.27-.39.26-.8.75-.79,1.34-.02.6.54,1.12,1.26,1.2.7.1,1.39-.27,1.5-.84.12-.56-.23-1.11-.59-1.4-.37-.3-.77-.4-1.04-.37-.27.02-.42.1-.44.06Z"/>
    <g>
      <path class="cls-6" d="m26.97,100.27h145.61c11.86,0,20.98,9.71,20.25,21.57l-4.04,65.91c-.73,11.86-11.03,21.57-22.89,21.57h-16.86l6.89,22.63-32.95-22.63H20.29c-11.86,0-20.98-9.71-20.25-21.57l4.04-65.91c.73-11.86,11.03-21.57,22.89-21.57Z"/>
      <g>
        <path class="cls-2" d="m159.23,134.79H36.08c-2.23,0-3.95-1.83-3.81-4.06h0c.14-2.23,2.08-4.06,4.31-4.06h123.15c2.23,0,3.95,1.83,3.81,4.06h0c-.14,2.23-2.08,4.06-4.31,4.06Z"/>
        <path class="cls-2" d="m86.34,158.86h-51.73c-2.23,0-3.95-1.83-3.81-4.06h0c.14-2.23,2.08-4.06,4.31-4.06h51.73c2.23,0,3.95,1.83,3.81,4.06h0c-.14,2.23-2.08,4.06-4.31,4.06Z"/>
        <path class="cls-2" d="m130.56,182.92H33.14c-2.23,0-3.95-1.83-3.81-4.06h0c.14-2.23,2.08-4.06,4.31-4.06h97.42c2.23,0,3.95,1.83,3.81,4.06h0c-.14,2.23-2.08,4.06-4.31,4.06Z"/>
        <path class="cls-2" d="m124.22,158.86h-20.35c-2.23,0-3.95-1.83-3.81-4.06h0c.14-2.23,2.08-4.06,4.31-4.06h20.35c2.23,0,3.95,1.83,3.81,4.06h0c-.14,2.23-2.08,4.06-4.31,4.06Z"/>
      </g>
    </g>
    <g>
      <g>
        <path class="cls-6" d="m564.63,44.56h-99.29c-11.55,0-21.57,9.45-22.28,20.99l-3.93,64.15c-.71,11.55,8.16,20.99,19.71,20.99h16.41l-9.4,22.02,34.76-22.02h57.52c11.55,0,21.57-9.45,22.28-20.99l3.93-64.15c.71-11.55-8.16-20.99-19.71-20.99Z"/>
        <g class="cls-11">
          <path class="cls-6" d="m564.63,44.56h-99.29c-11.55,0-21.57,9.45-22.28,20.99l-3.93,64.15c-.71,11.55,8.16,20.99,19.71,20.99h16.41l-9.4,22.02,34.76-22.02h57.52c11.55,0,21.57-9.45,22.28-20.99l3.93-64.15c.71-11.55-8.16-20.99-19.71-20.99Z"/>
        </g>
      </g>
      <path class="cls-2" d="m516.75,108.13c-.62,2.9-3.36,4.98-6.3,4.98h-5.86c.07-1.67.12-2.68.14-3.05.23-3.76,1.04-6.86,2.43-9.28,1.39-2.43,4.05-5.16,7.97-8.19,3.92-3.03,6.27-5.02,7.05-5.96,1.21-1.49,1.88-3.12,1.98-4.91.15-2.49-.71-4.62-2.59-6.39-1.88-1.77-4.5-2.66-7.87-2.66s-6.02.93-8.32,2.78c-1.33,1.07-2.46,2.48-3.37,4.2-1.29,2.45-3.87,3.98-6.53,3.65h0c-4.11-.51-6.31-5.02-4.14-8.71,1.28-2.18,3-4.17,5.15-5.97,4.52-3.79,10.28-5.69,17.25-5.69,7.34,0,13.07,1.92,17.17,5.76,4.1,3.84,6,8.31,5.69,13.4-.17,2.82-1.13,5.49-2.88,8.01-1.75,2.52-5.36,5.95-10.85,10.28-2.84,2.25-4.63,4.05-5.36,5.42-.32.59-.58,1.37-.79,2.35Zm-12.84,16.14l.04-.71c.2-3.34,3.07-6.04,6.41-6.04h.71c3.34,0,5.87,2.7,5.67,6.04l-.04.71c-.2,3.34-3.07,6.04-6.41,6.04h-.71c-3.34,0-5.87-2.7-5.67-6.04Z"/>
    </g>
    <g>
      <path class="cls-12" d="m354.48,253.78c.45,0,.81-.36.81-.81s-.36-.81-.81-.81-.81.36-.81.81.36.81.81.81Z"/>
      <path class="cls-15" d="m345.66,253.78c.45,0,.81-.36.81-.81s-.36-.81-.81-.81-.81.36-.81.81.36.81.81.81Z"/>
      <path class="cls-13" d="m341.25,253.78c.45,0,.81-.36.81-.81s-.36-.81-.81-.81-.81.36-.81.81.36.81.81.81Z"/>
      <path class="cls-14" d="m350.07,253.78c.45,0,.81-.36.81-.81s-.36-.81-.81-.81-.81.36-.81.81.36.81.81.81Z"/>
      <path class="cls-3" d="m324.58,250.41c.03.1.09.11.18.11h.62c.09,0,.11-.07.09-.14l-.54-1.55h-2.98l-.53,1.55c-.03.07,0,.14.09.14h.61c.11,0,.15-.03.17-.11l.29-.9h1.69l.29.91Zm-2.51-1.93l.79-2.29c.08-.25.17-.31.41-.32h.02s.3,0,.3,0c.26,0,.35.06.43.3l.8,2.31h-.84l-.24-.77-.28-.94h-.03l-.27.92-.24.79h-.82Zm-5.25,0h-.81v-2.46c0-.11.05-.14.15-.14h.5c.13,0,.16.02.16.14v2.46Zm-.81.35h.81v.51c0,.34.18.47.48.47h1.8c.1,0,.11.03.11.12v.47s0,.01,0,.01c0,.08-.02.11-.11.11h-1.91c-.92,0-1.17-.58-1.17-1.18v-.51Zm-3.24-.35l-.8-2.31c-.08-.24-.17-.3-.43-.3h-.3s-.02,0-.02,0c-.24,0-.32.07-.41.32l-.79,2.29h.82l.24-.79.27-.92h.03l.28.94.24.77h.84Zm-2.86.35h2.98l.54,1.55c.03.07,0,.14-.09.14h-.62c-.09,0-.15,0-.18-.11l-.29-.91h-1.69l-.29.9c-.03.08-.07.11-.17.11h-.61c-.09,0-.12-.07-.09-.14l.53-1.55Zm-2.89-.35c.11,0,.13-.05.13-.14h0v-.39c0-.12-.02-.15-.13-.15h-2v-.78c0-.28.12-.42.46-.42h1.79c.1,0,.13-.04.13-.14h0v-.42c0-.11-.02-.15-.14-.15h-1.87c-.91,0-1.19.57-1.19,1.19v1.41h2.82Zm-2.82.35h.81v1.55h0c0,.12-.04.14-.15.14h-.52c-.09,0-.14-.03-.14-.14v-1.55Zm50.31,1.69c-.09,0-.15,0-.18-.11l-.29-.91h-1.69l-.29.9c-.03.08-.07.11-.17.11h-.61c-.09,0-.12-.07-.09-.14l.53-1.55h2.98l.54,1.55c.03.07,0,.14-.09.14h-.62Zm.05-2.04h-.84l-.24-.77-.28-.94h-.03l-.27.92-.24.79h-.82l.79-2.29c.08-.25.17-.31.41-.32h.02s.3,0,.3,0c.26,0,.35.06.43.3l.8,2.31Zm-7.61,0v-2.46c0-.12-.03-.14-.16-.14h-.5c-.11,0-.15.03-.15.14v2.46h.81Zm-5.71,0v-2.46c0-.12-.03-.14-.16-.14h-.5c-.11,0-.15.03-.15.14v2.46h.81Zm-.81.35h.81v.51c0,.34.18.47.48.47h1.8c.1,0,.11.03.11.12v.47h0c0,.09-.02.13-.11.13h-1.91c-.92,0-1.17-.58-1.17-1.18v-.51Zm-3.2-.35c.06-.02.07-.06.07-.13h0v-.38c0-.12-.02-.16-.13-.16h-2.01v-.79c0-.28.12-.43.46-.43h1.78c.11,0,.13-.04.13-.15v-.42c0-.11-.02-.15-.13-.15h-1.86c-.86,0-1.19.57-1.19,1.19v1.41h2.89Zm-2.89.35h.81v.54c0,.28.14.43.46.43h1.81c.12,0,.14.04.14.16v.41h0c0,.1-.03.15-.14.15h-1.9c-.93,0-1.19-.58-1.19-1.18v-.51Zm11.8,0h.81v.51c0,.34.18.47.48.47h1.8c.1,0,.11.03.11.12v.47h0c0,.09-.02.13-.11.13h-1.91c-.92,0-1.17-.58-1.17-1.18v-.51Zm-17.69-2.94h.44s0,.71,0,.71v3.92h-.44c-.28,0-.37-.11-.37-.38v-3.89c0-.25.1-.37.37-.37Zm1.53,1.8h-.74v.67h.76c.52,0,.8.3.8.72,0,.3-.17.72-.81.72h-.75v.73h.84c.87,0,1.56-.56,1.56-1.4,0-.47-.22-.95-.73-1.14v-.05c.3-.17.53-.52.53-.91,0-.82-.61-1.15-1.44-1.15h-.76v.72h.77c.35,0,.58.2.58.52,0,.46-.36.57-.61.57Z"/>
      <path class="cls-2" d="m305.72,253.83c.15.03.28.1.37.23.1.12.15.26.15.42,0,.14-.04.27-.11.38-.07.11-.17.19-.3.25-.13.06-.29.09-.47.09h-1.16v-2.68h1.11c.18,0,.34.03.47.09.13.06.23.14.3.25.07.11.1.22.1.36,0,.16-.04.29-.13.39-.08.11-.19.18-.33.22Zm-.98-.2h.49c.13,0,.23-.03.3-.08.07-.06.1-.14.1-.25s-.03-.19-.1-.25c-.07-.06-.17-.09-.3-.09h-.49v.67Zm.54,1.14c.13,0,.23-.03.3-.09.07-.06.11-.15.11-.26s-.04-.2-.12-.27c-.08-.07-.18-.1-.31-.1h-.53v.72h.54Zm3.4-1.69v2.13h-.54v-.27c-.07.09-.16.17-.27.22-.11.05-.23.08-.36.08-.17,0-.31-.03-.44-.1-.13-.07-.23-.18-.3-.31-.07-.14-.11-.3-.11-.49v-1.25h.54v1.17c0,.17.04.3.13.39.08.09.2.13.35.13s.27-.04.35-.13c.08-.09.13-.22.13-.39v-1.17h.54Zm1.35,2.16c-.17,0-.33-.03-.47-.09-.14-.06-.25-.15-.33-.26-.08-.11-.12-.23-.13-.36h.54c.01.08.05.15.12.2.07.05.16.08.27.08s.18-.02.24-.06c.06-.04.09-.09.09-.16,0-.07-.04-.12-.11-.15-.07-.04-.18-.07-.33-.12-.16-.04-.29-.08-.39-.12-.1-.04-.19-.1-.26-.19-.07-.08-.11-.2-.11-.34,0-.12.03-.23.1-.32.07-.1.17-.17.29-.23.13-.06.28-.08.45-.08.25,0,.46.06.61.19.15.13.23.3.25.51h-.51c0-.08-.04-.15-.11-.2-.06-.05-.14-.08-.25-.08-.1,0-.17.02-.23.05-.05.04-.08.09-.08.15,0,.07.04.13.11.17.07.04.18.07.33.11.15.04.28.08.38.12.1.04.19.11.26.19.07.08.11.2.12.34,0,.12-.03.23-.1.33-.07.1-.16.17-.29.23-.13.05-.27.08-.44.08Zm1.55-2.42c-.09,0-.17-.03-.24-.09-.06-.06-.09-.14-.09-.23s.03-.16.09-.22c.06-.06.14-.09.24-.09s.17.03.23.09c.06.06.1.13.1.22s-.03.17-.1.23c-.06.06-.14.09-.23.09Zm.27.25v2.13h-.54v-2.13h.54Zm1.71-.03c.25,0,.46.08.61.24.16.16.23.38.23.67v1.25h-.54v-1.18c0-.17-.04-.3-.13-.39-.08-.09-.2-.14-.35-.14s-.27.05-.35.14c-.08.09-.13.22-.13.39v1.18h-.54v-2.13h.54v.27c.07-.09.16-.16.27-.22.11-.05.24-.08.37-.08Zm3.34,1.05c0,.08,0,.15-.02.21h-1.56c.01.15.07.27.16.36.09.09.21.13.35.13.2,0,.34-.09.43-.26h.58c-.06.2-.18.37-.35.51-.17.13-.39.2-.64.2-.2,0-.39-.04-.55-.13-.16-.09-.29-.22-.38-.39-.09-.17-.13-.36-.13-.58s.04-.41.13-.58c.09-.17.22-.29.38-.38.16-.09.35-.13.56-.13s.38.04.54.13c.16.09.29.21.37.37.09.16.13.34.13.55Zm-.56-.15c0-.14-.05-.25-.15-.33-.1-.08-.22-.13-.36-.13-.13,0-.25.04-.34.12-.09.08-.14.19-.17.33h1.01Zm1.76,1.3c-.17,0-.33-.03-.47-.09-.14-.06-.25-.15-.33-.26-.08-.11-.12-.23-.13-.36h.54c.01.08.05.15.12.2.07.05.16.08.27.08s.18-.02.24-.06c.06-.04.09-.09.09-.16,0-.07-.04-.12-.11-.15-.07-.04-.18-.07-.33-.12-.16-.04-.29-.08-.39-.12-.1-.04-.19-.1-.26-.19-.07-.08-.11-.2-.11-.34,0-.12.03-.23.1-.32.07-.1.17-.17.29-.23.13-.06.28-.08.45-.08.25,0,.46.06.61.19.15.13.23.3.25.51h-.51c0-.08-.04-.15-.11-.2-.06-.05-.14-.08-.25-.08-.1,0-.17.02-.23.05-.05.04-.08.09-.08.15,0,.07.04.13.11.17.07.04.18.07.33.11.15.04.28.08.38.12.1.04.19.11.26.19.07.08.11.2.12.34,0,.12-.03.23-.1.33-.07.1-.16.17-.29.23-.13.05-.27.08-.44.08Zm2.09,0c-.17,0-.33-.03-.47-.09-.14-.06-.25-.15-.33-.26-.08-.11-.12-.23-.13-.36h.54c.01.08.05.15.12.2.07.05.16.08.27.08s.18-.02.24-.06c.06-.04.09-.09.09-.16,0-.07-.04-.12-.11-.15-.07-.04-.18-.07-.33-.12-.16-.04-.29-.08-.39-.12-.1-.04-.19-.1-.26-.19-.07-.08-.11-.2-.11-.34,0-.12.03-.23.1-.32.07-.1.17-.17.29-.23.13-.06.28-.08.45-.08.25,0,.46.06.61.19.15.13.23.3.25.51h-.51c0-.08-.04-.15-.11-.2-.06-.05-.14-.08-.25-.08-.1,0-.17.02-.23.05-.05.04-.08.09-.08.15,0,.07.04.13.11.17.07.04.18.07.33.11.15.04.28.08.38.12s.19.11.26.19c.07.08.11.2.12.34,0,.12-.03.23-.1.33-.07.1-.16.17-.29.23-.13.05-.27.08-.44.08Zm2.06-1.38c0-.26.06-.5.18-.71.12-.21.28-.37.49-.49.21-.12.44-.18.7-.18.3,0,.56.08.79.23.23.15.38.37.47.64h-.62c-.06-.13-.15-.22-.26-.29-.11-.06-.24-.1-.38-.1-.16,0-.3.04-.42.11-.12.07-.22.17-.28.31-.07.13-.1.29-.1.47s.03.33.1.47c.07.13.16.24.28.31.12.07.26.11.42.11.15,0,.27-.03.38-.1.11-.07.2-.16.26-.29h.62c-.09.27-.25.49-.47.64-.22.15-.49.23-.79.23-.26,0-.49-.06-.7-.17-.2-.12-.37-.28-.49-.49-.12-.21-.18-.44-.18-.71Zm5.06.23c0,.08,0,.15-.02.21h-1.56c.01.15.07.27.16.36.09.09.21.13.35.13.2,0,.34-.09.43-.26h.58c-.06.2-.18.37-.35.51-.17.13-.39.2-.64.2-.21,0-.39-.04-.55-.13-.16-.09-.29-.22-.38-.39-.09-.17-.13-.36-.13-.58s.04-.41.13-.58c.09-.17.22-.29.38-.38.16-.09.35-.13.56-.13s.38.04.54.13c.16.09.29.21.37.37.09.16.13.34.13.55Zm-.56-.15c0-.14-.05-.25-.15-.33-.1-.08-.22-.13-.36-.13-.13,0-.25.04-.34.12-.09.08-.14.19-.17.33h1.01Zm2.13-.9c.25,0,.46.08.61.24.16.16.23.38.23.67v1.25h-.54v-1.18c0-.17-.04-.3-.13-.39-.08-.09-.2-.14-.35-.14s-.27.05-.35.14c-.08.09-.13.22-.13.39v1.18h-.54v-2.13h.54v.27c.07-.09.16-.16.27-.22.11-.05.24-.08.37-.08Zm1.99.47v1.03c0,.07.02.12.05.16.04.03.09.05.18.05h.25v.45h-.34c-.45,0-.68-.22-.68-.66v-1.03h-.25v-.44h.25v-.53h.54v.53h.48v.44h-.48Zm2.84.58c0,.08,0,.15-.02.21h-1.56c.01.15.07.27.16.36.09.09.21.13.35.13.2,0,.34-.09.43-.26h.58c-.06.2-.18.37-.35.51-.17.13-.39.2-.64.2-.21,0-.39-.04-.55-.13-.16-.09-.29-.22-.38-.39-.09-.17-.13-.36-.13-.58s.04-.41.13-.58c.09-.17.22-.29.38-.38.16-.09.35-.13.56-.13s.38.04.54.13c.16.09.29.21.37.37.09.16.13.34.13.55Zm-.56-.15c0-.14-.05-.25-.15-.33-.1-.08-.22-.13-.36-.13-.13,0-.25.04-.34.12-.09.08-.14.19-.17.33h1.01Zm1.49-.53c.07-.11.16-.2.27-.27.11-.06.24-.1.38-.1v.56h-.14c-.17,0-.3.04-.38.12-.08.08-.13.22-.13.42v1.06h-.54v-2.13h.54v.33Z"/>
    </g>
  </g>
</svg>