<?xml version="1.0" encoding="UTF-8"?>
<svg id="Capa_1" data-name="Capa 1" xmlns="http://www.w3.org/2000/svg" viewBox="0 0 537.28 58.43">
  <defs>
    <style>
      .cls-1 {
        fill: #48ac33;
      }

      .cls-1, .cls-2, .cls-3, .cls-4 {
        fill-rule: evenodd;
      }

      .cls-2 {
        fill: #256fb7;
      }

      .cls-3 {
        fill: #e30847;
      }

      .cls-4 {
        fill: #8a919a;
      }
    </style>
  </defs>
  <path class="cls-1" d="m507.9,58.43c16.22,0,29.38-13.08,29.38-29.21s-13.16-29.21-29.38-29.21-29.38,13.08-29.38,29.21,13.15,29.21,29.38,29.21Z"/>
  <path class="cls-3" d="m188.9,58.43c16.22,0,29.38-13.08,29.38-29.21S205.12,0,188.9,0s-29.38,13.08-29.38,29.21,13.15,29.21,29.38,29.21Z"/>
  <path class="cls-4" d="m29.38,58.43c16.22,0,29.38-13.08,29.38-29.21S45.61,0,29.38,0,0,13.08,0,29.21s13.16,29.21,29.38,29.21Z"/>
  <path class="cls-2" d="m348.38,58.42c16.22,0,29.38-13.08,29.38-29.21S364.61,0,348.38,0s-29.38,13.08-29.38,29.21,13.16,29.21,29.38,29.21Z"/>
</svg>