<svg width="32" height="32" viewBox="0 0 32 32" fill="none" xmlns="http://www.w3.org/2000/svg">
<path d="M24 8V29.5C24 29.775 23.775 30 23.5 30H4.5C4.225 30 4 29.775 4 29.5V2.5C4 2.225 4.225 2 4.5 2H18L24 8Z" fill="#F0F0F0"/>
<path d="M24 18.5V27.5H12C11.45 27.5 11 27.05 11 26.5V19.5C11 18.95 11.45 18.5 12 18.5H24Z" fill="#D2D2D2"/>
<path d="M27 27H12C11.4475 27 11 26.5525 11 26V19C11 18.4475 11.4475 18 12 18H27C27.5525 18 28 18.4475 28 19V26C28 26.5525 27.5525 27 27 27Z" fill="#C80A50"/>
<path d="M26 20.5H23C22.7235 20.5 22.5 20.276 22.5 20C22.5 19.724 22.7235 19.5 23 19.5H26C26.2765 19.5 26.5 19.724 26.5 20C26.5 20.276 26.2765 20.5 26 20.5Z" fill="#F0F0F0"/>
<path d="M24.5 25.5C24.2235 25.5 24 25.276 24 25V20C24 19.724 24.2235 19.5 24.5 19.5C24.7765 19.5 25 19.724 25 20V25C25 25.276 24.7765 25.5 24.5 25.5Z" fill="#F0F0F0"/>
<path d="M24 8H18.5C18.224 8 18 7.776 18 7.5V2L24 8Z" fill="#D2D2D2"/>
<path d="M14.5 23.5H13C12.7235 23.5 12.5 23.276 12.5 23V20C12.5 19.724 12.7235 19.5 13 19.5H14.5C15.603 19.5 16.5 20.397 16.5 21.5C16.5 22.603 15.603 23.5 14.5 23.5ZM13.5 22.5H14.5C15.0515 22.5 15.5 22.0515 15.5 21.5C15.5 20.9485 15.0515 20.5 14.5 20.5H13.5V22.5Z" fill="#F0F0F0"/>
<path d="M13 25.5C12.7235 25.5 12.5 25.276 12.5 25V23C12.5 22.724 12.7235 22.5 13 22.5C13.2765 22.5 13.5 22.724 13.5 23V25C13.5 25.276 13.2765 25.5 13 25.5Z" fill="#F0F0F0"/>
<path d="M19.5 23.5H18C17.7235 23.5 17.5 23.276 17.5 23V20C17.5 19.724 17.7235 19.5 18 19.5H19.5C20.603 19.5 21.5 20.397 21.5 21.5C21.5 22.603 20.603 23.5 19.5 23.5ZM18.5 22.5H19.5C20.0515 22.5 20.5 22.0515 20.5 21.5C20.5 20.9485 20.0515 20.5 19.5 20.5H18.5V22.5Z" fill="#F0F0F0"/>
<path d="M18 25.5C17.7235 25.5 17.5 25.276 17.5 25V23C17.5 22.724 17.7235 22.5 18 22.5C18.2765 22.5 18.5 22.724 18.5 23V25C18.5 25.276 18.2765 25.5 18 25.5Z" fill="#F0F0F0"/>
<path d="M16 10C16 12.7705 13.7495 15 11 15C8.24 15 6 12.76 6 10C6 7.24 8.24 5 11 5L16 10Z" fill="#C80A50"/>
<path d="M16 10C16 10.17 15.99 10.335 15.975 10.5H11.5C11.225 10.5 11 10.275 11 10V5L16 10Z" fill="#A00028"/>
<path d="M16.4745 10.0001H11.5C11.224 10.0001 11 9.77609 11 9.50009V4.52559C11 4.22959 11.2565 3.99809 11.5515 4.02509C14.424 4.28709 16.713 6.57659 16.975 9.44859C17.002 9.74359 16.7705 10.0001 16.4745 10.0001Z" fill="#FAB400"/>
</svg>
