<svg width="77" height="76" viewBox="0 0 77 76" fill="none" xmlns="http://www.w3.org/2000/svg">
<path d="M76.5 38C76.5 17.0132 59.4868 0 38.5 0C17.5132 0 0.5 17.0132 0.5 38C0.5 58.9868 17.5132 76 38.5 76C59.4868 76 76.5 58.9868 76.5 38Z" fill="#FBFAFC"/>
<path fill-rule="evenodd" clip-rule="evenodd" d="M23.5185 32.1564C23.8413 30.0786 24.6297 27.1766 26.5665 24.6725C28.7736 21.8189 32.5479 19.3819 39.1415 19.3819C45.7402 19.3819 49.4731 21.7849 51.6392 24.6136C53.8413 27.4893 54.5092 30.9169 54.734 33.0688L56.47 32.8874C56.2322 30.611 55.515 26.8041 53.025 23.5524C50.4991 20.2538 46.233 17.6365 39.1415 17.6365C32.0465 17.6365 27.7465 20.2938 25.1858 23.6046C22.7319 26.7773 21.9462 30.4568 21.6843 32.6911C21.3648 32.8576 21.0583 33.0694 20.7813 33.3381C20.0285 34.0682 19.5927 35.1208 19.5927 36.5195V39.5174C19.5921 39.5327 19.5915 39.5524 19.5912 39.576C19.5904 39.6243 19.5906 39.6896 19.5937 39.7693C19.5998 39.9281 19.6173 40.1467 19.6624 40.4028C19.752 40.9106 19.9556 41.5953 20.4218 42.2496C21.3112 43.4978 22.9618 44.385 25.7938 44.1455V45.6363C25.7938 48.0894 26.691 51.3311 28.9289 53.9733C31.1925 56.6458 34.7864 58.6542 40.0539 58.6542C45.5153 58.6542 48.6118 55.3176 50.2966 52.1152C51.0115 50.7564 51.4845 49.4042 51.7923 48.3024H51.82L51.8264 48.303C51.8663 48.3068 51.9201 48.3111 51.9858 48.3143C52.1167 48.3208 52.2974 48.323 52.5117 48.3082C52.9358 48.2789 53.5191 48.181 54.1145 47.8938C54.7197 47.6018 55.3262 47.1187 55.7738 46.3477C56.218 45.5826 56.4753 44.5869 56.4753 43.3126H54.7299C54.7299 44.3538 54.5204 45.0304 54.2643 45.4714C54.0117 45.9065 53.6846 46.1632 53.3561 46.3217C53.0179 46.4848 52.6676 46.5478 52.3915 46.5669C52.3191 46.5719 52.2537 46.5738 52.1973 46.5739C52.2155 46.4771 52.2315 46.3875 52.2456 46.3059C52.2757 46.1305 52.2967 45.9912 52.3103 45.8939C52.3171 45.8453 52.3221 45.8072 52.3255 45.7803L52.3294 45.7485L52.3305 45.7391L52.3309 45.736C52.3309 45.736 52.3311 45.7341 51.4639 45.6363L52.3311 45.7341L52.3366 45.6853V36.0992L52.3376 36.0702L52.3387 36.0274C52.3392 36.0036 52.3398 35.9756 52.3402 35.9434C52.3416 35.8351 52.3418 35.68 52.3372 35.4849C52.3281 35.0949 52.2998 34.5431 52.2239 33.883C52.0724 32.5676 51.7287 30.7972 50.9516 29.0141C50.1731 27.2279 48.9494 25.4063 47.0293 24.0329C45.1023 22.6545 42.5328 21.77 39.1406 21.77C35.7486 21.77 33.1714 22.6545 31.2317 24.031C29.299 25.4025 28.0562 27.2217 27.2581 29.0066C26.7523 30.138 26.421 31.2646 26.2039 32.273C26.0332 32.2411 25.8121 32.2049 25.5553 32.1743C25.0119 32.1095 24.2814 32.0666 23.5185 32.1564ZM50.4216 46.5569C50.4652 46.3458 50.4993 46.1619 50.5253 46.0104C50.5522 45.8537 50.5705 45.7321 50.5818 45.6515C50.5854 45.6258 50.5883 45.6043 50.5905 45.5872L50.5911 45.5824V36.0631L50.592 36.0444L50.5922 36.0403L50.5929 36.0184C50.5935 35.9976 50.5943 35.9647 50.5949 35.9204C50.5961 35.8319 50.5963 35.6982 50.5923 35.5258C50.5842 35.1808 50.5589 34.6825 50.4899 34.0826C50.3512 32.8781 50.0388 31.2884 49.3515 29.7115C48.6656 28.1376 47.6168 26.5992 46.0139 25.4526C44.418 24.311 42.2141 23.5155 39.1406 23.5155C36.0676 23.5155 33.8532 24.311 32.2418 25.4545C30.6234 26.603 29.5558 28.1438 28.8516 29.719C28.146 31.2972 27.8155 32.8876 27.6632 34.0923C27.5873 34.6923 27.5564 35.1906 27.5444 35.5357C27.5384 35.7081 27.5371 35.8418 27.5373 35.9303C27.5374 35.9746 27.5378 36.0075 27.5382 36.0282L27.5387 36.0502L27.5388 36.0539L27.5392 36.0681V45.6363C27.5392 47.7173 28.3153 50.5482 30.2608 52.8451C32.1806 55.1117 35.2804 56.9088 40.0539 56.9088C44.6334 56.9088 47.2418 54.1728 48.7519 51.3026C49.2996 50.2614 49.6938 49.2155 49.9736 48.3024H44.0187C44.0548 48.4723 44.0735 48.6474 44.0735 48.8239V50.2034C44.0735 51.3588 43.275 52.4534 41.9955 52.4534H38.205C36.9283 52.4534 36.127 51.3597 36.127 50.2034V48.8239C36.127 47.6676 36.9283 46.574 38.205 46.574H41.987L41.9751 46.5569H50.4216ZM37.8725 48.8239C37.8725 48.6199 37.9385 48.486 38.0008 48.4148C38.0584 48.349 38.1243 48.3194 38.205 48.3194H41.9955C42.0777 48.3194 42.1432 48.3493 42.2001 48.4144C42.2619 48.4852 42.328 48.6191 42.328 48.8239V50.2034C42.328 50.4083 42.2619 50.5422 42.2001 50.6129C42.1432 50.678 42.0777 50.7079 41.9955 50.7079H38.205C38.1243 50.7079 38.0584 50.6784 38.0008 50.6126C37.9385 50.5414 37.8725 50.4074 37.8725 50.2034V48.8239ZM25.8 35.475C25.8127 35.1093 25.8439 34.6012 25.9165 33.995C25.7749 33.9679 25.5799 33.935 25.3488 33.9075C24.8385 33.8467 24.1852 33.816 23.5525 33.9129C22.9154 34.0104 22.3736 34.2253 21.9965 34.5911C21.6412 34.9357 21.3382 35.5047 21.3382 36.5195V39.5639L21.3369 39.5852L21.3364 39.6027C21.3361 39.6224 21.3361 39.6564 21.3379 39.7026C21.3414 39.7954 21.3521 39.9338 21.3814 40.0996C21.4406 40.4356 21.5705 40.8539 21.8433 41.2367C22.2895 41.8629 23.3036 42.6432 25.7938 42.3933V36.0951L25.793 36.0603C25.7925 36.0303 25.7919 35.9877 25.7918 35.9335C25.7916 35.8252 25.7932 35.6701 25.8 35.475Z" fill="#0C2841"/>
<path fill-rule="evenodd" clip-rule="evenodd" d="M51.9726 34.047C51.9728 34.0469 51.9731 34.0468 51.7573 33.2012C51.5414 32.3556 51.5417 32.3555 51.5421 32.3554L51.545 32.3547L51.5508 32.3532L51.5688 32.3488C51.5837 32.3452 51.604 32.3404 51.6296 32.3346C51.6807 32.3229 51.7526 32.3072 51.8426 32.2895C52.0221 32.2542 52.275 32.2103 52.5774 32.1743C53.1753 32.103 53.9995 32.0582 54.8443 32.1875C55.6847 32.3162 56.6204 32.6291 57.3514 33.3381C58.1043 34.0682 58.54 35.1208 58.54 36.5195V39.5174C58.5406 39.5327 58.5412 39.5524 58.5416 39.576C58.5423 39.6243 58.5421 39.6896 58.5391 39.7693C58.533 39.9281 58.5155 40.1467 58.4703 40.4028C58.3808 40.9106 58.1771 41.5953 57.7109 42.2496C56.7206 43.6395 54.7864 44.5818 51.3281 44.0192L51.6084 42.2964C54.6365 42.789 55.8019 41.9209 56.2894 41.2367C56.5622 40.8539 56.6921 40.4356 56.7514 40.0996C56.7806 39.9338 56.7913 39.7954 56.7949 39.7026C56.7967 39.6564 56.7966 39.6224 56.7963 39.6027L56.7959 39.5852L56.7946 39.5639V36.5195C56.7946 35.5047 56.4916 34.9357 56.1363 34.5911C55.7591 34.2253 55.2173 34.0104 54.5802 33.9129C53.9475 33.816 53.2943 33.8467 52.784 33.9075C52.5323 33.9375 52.3235 33.9738 52.1799 34.0021C52.1082 34.0162 52.0532 34.0282 52.0177 34.0363L51.9796 34.0452L51.9726 34.047ZM51.9726 34.047C51.972 34.0471 51.9724 34.047 51.9726 34.047V34.047Z" fill="#333333"/>
</svg>
