<svg width="24" height="24" viewBox="0 0 24 24" fill="none" xmlns="http://www.w3.org/2000/svg">
<mask id="mask0_1069_334" style="mask-type:luminance" maskUnits="userSpaceOnUse" x="0" y="0" width="24" height="24">
<path d="M24 0H0V24H24V0Z" fill="white"/>
</mask>
<g mask="url(#mask0_1069_334)">
<path d="M10 14.25C12.6232 14.25 14.75 16.3768 14.75 19C14.75 19.4142 14.4142 19.75 14 19.75C13.5858 19.75 13.25 19.4142 13.25 19C13.25 17.2671 11.8934 15.8508 10.1844 15.7551L10 15.75H6C4.2052 15.75 2.75 17.2052 2.75 19C2.75 19.4142 2.4142 19.75 2 19.75C1.5858 19.75 1.25 19.4142 1.25 19C1.25 16.4497 3.2603 14.3685 5.7826 14.2549L6 14.25H10Z" fill="white"/>
<path d="M4.99481 5.49478C6.65451 3.83508 9.3455 3.83508 11.0052 5.49478C12.665 7.15448 12.665 9.84547 11.0052 11.5052C9.3455 13.1649 6.65451 13.1649 4.99481 11.5052C3.33511 9.84547 3.33511 7.15448 4.99481 5.49478ZM9.8069 6.42677C8.7267 5.48337 7.0847 5.52627 6.05551 6.55547C4.98151 7.62937 4.98151 9.37057 6.05551 10.4445C7.12941 11.5185 8.8706 11.5185 9.9445 10.4445C10.9737 9.41527 11.0166 7.77327 10.0732 6.69307L9.9445 6.55547L9.8069 6.42677Z" fill="white"/>
<path d="M19 13.25C21.0712 13.25 22.75 14.9288 22.75 17C22.75 17.4142 22.4142 17.75 22 17.75C21.6203 17.75 21.3065 17.4678 21.2568 17.1018L21.25 17C21.25 15.809 20.325 14.8343 19.1541 14.7552L19 14.75H16C15.5858 14.75 15.25 14.4142 15.25 14C15.25 13.6203 15.5322 13.3065 15.8982 13.2569L16 13.25H19Z" fill="white"/>
<path d="M15.2019 6.2019C16.4711 4.9327 18.5289 4.9327 19.7981 6.2019C21.0673 7.4711 21.0673 9.5289 19.7981 10.7981C18.5289 12.0673 16.4711 12.0673 15.2019 10.7981C13.9327 9.5289 13.9327 7.4711 15.2019 6.2019ZM18.6126 7.1491C17.9252 6.5815 16.9058 6.6193 16.2626 7.2626C15.5792 7.946 15.5792 9.054 16.2626 9.7374C16.946 10.4209 18.0541 10.4209 18.7375 9.7374C19.3807 9.0942 19.4185 8.0749 18.851 7.3874L18.7375 7.2626L18.6126 7.1491Z" fill="white"/>
</g>
</svg>
