<svg width="48" height="48" viewBox="0 0 48 48" fill="none" xmlns="http://www.w3.org/2000/svg">
<mask id="mask0_1069_370" style="mask-type:luminance" maskUnits="userSpaceOnUse" x="0" y="0" width="48" height="48">
<path d="M48 0H0V48H48V0Z" fill="white"/>
</mask>
<g mask="url(#mask0_1069_370)">
<path d="M36 6H12C8.6862 6 6 8.686 6 12V36C6 39.314 8.6862 42 12 42H36C39.3138 42 42 39.314 42 36V12C42 8.686 39.3138 6 36 6Z" stroke="white" stroke-width="1.5" stroke-linecap="round" stroke-linejoin="round"/>
<path d="M42 16H6" stroke="white" stroke-width="1.5" stroke-linecap="round" stroke-linejoin="round"/>
<path d="M34.6 23C34.6 23.02 34.594 23.04 34.583 23.056C34.572 23.072 34.5564 23.086 34.5382 23.092C34.5198 23.1 34.4998 23.102 34.4804 23.098C34.461 23.094 34.4432 23.086 34.4292 23.072C34.4152 23.058 34.4056 23.04 34.4018 23.02C34.398 23 34.4 22.98 34.4076 22.962C34.415 22.944 34.428 22.928 34.4444 22.918C34.4608 22.906 34.4802 22.9 34.5 22.9" stroke="white" stroke-width="1.5" stroke-linecap="round" stroke-linejoin="round"/>
<path d="M34.5 22.9C34.5266 22.9 34.552 22.91 34.5708 22.93C34.5894 22.948 34.6 22.974 34.6 23" stroke="white" stroke-width="1.5" stroke-linecap="round" stroke-linejoin="round"/>
<path d="M27.598 23C27.598 23.02 27.592 23.04 27.581 23.056C27.5702 23.072 27.5544 23.086 27.5362 23.092C27.518 23.1 27.4978 23.102 27.4784 23.098C27.459 23.094 27.4412 23.086 27.4272 23.072C27.4132 23.058 27.4038 23.04 27.3998 23.02C27.396 23 27.398 22.98 27.4056 22.962C27.4132 22.944 27.426 22.928 27.4424 22.918C27.4588 22.906 27.4782 22.9 27.498 22.9" stroke="white" stroke-width="1.5" stroke-linecap="round" stroke-linejoin="round"/>
<path d="M27.498 22.9C27.5246 22.9 27.55 22.91 27.5688 22.93C27.5876 22.948 27.598 22.974 27.598 23" stroke="white" stroke-width="1.5" stroke-linecap="round" stroke-linejoin="round"/>
<path d="M20.598 23C20.598 23.02 20.592 23.04 20.581 23.056C20.5702 23.072 20.5544 23.086 20.5362 23.092C20.518 23.1 20.4978 23.102 20.4784 23.098C20.459 23.094 20.4412 23.086 20.4272 23.072C20.4132 23.058 20.4038 23.04 20.3998 23.02C20.396 23 20.398 22.98 20.4056 22.962C20.4132 22.944 20.426 22.928 20.4424 22.918C20.4588 22.906 20.4782 22.9 20.498 22.9" stroke="white" stroke-width="1.5" stroke-linecap="round" stroke-linejoin="round"/>
<path d="M20.498 22.9C20.5246 22.9 20.55 22.91 20.5688 22.93C20.5876 22.948 20.598 22.974 20.598 23" stroke="white" stroke-width="1.5" stroke-linecap="round" stroke-linejoin="round"/>
<path d="M13.598 29C13.598 29.02 13.592 29.04 13.581 29.056C13.5702 29.072 13.5544 29.086 13.5362 29.092C13.518 29.1 13.4978 29.102 13.4784 29.098C13.459 29.094 13.4412 29.086 13.4272 29.072C13.4132 29.058 13.4038 29.04 13.3998 29.02C13.396 29 13.398 28.98 13.4056 28.962C13.4132 28.944 13.426 28.928 13.4424 28.918C13.4588 28.906 13.4782 28.9 13.498 28.9" stroke="white" stroke-width="1.5" stroke-linecap="round" stroke-linejoin="round"/>
<path d="M13.498 28.9C13.5246 28.9 13.55 28.91 13.5688 28.93C13.5876 28.948 13.598 28.974 13.598 29" stroke="white" stroke-width="1.5" stroke-linecap="round" stroke-linejoin="round"/>
<path d="M20.598 29C20.598 29.02 20.592 29.04 20.581 29.056C20.5702 29.072 20.5544 29.086 20.5362 29.092C20.518 29.1 20.4978 29.102 20.4784 29.098C20.459 29.094 20.4412 29.086 20.4272 29.072C20.4132 29.058 20.4038 29.04 20.3998 29.02C20.396 29 20.398 28.98 20.4056 28.962C20.4132 28.944 20.426 28.928 20.4424 28.918C20.4588 28.906 20.4782 28.9 20.498 28.9" stroke="white" stroke-width="1.5" stroke-linecap="round" stroke-linejoin="round"/>
<path d="M20.498 28.9C20.5246 28.9 20.55 28.91 20.5688 28.93C20.5876 28.948 20.598 28.974 20.598 29" stroke="white" stroke-width="1.5" stroke-linecap="round" stroke-linejoin="round"/>
<path d="M27.598 29C27.598 29.02 27.592 29.04 27.581 29.056C27.5702 29.072 27.5544 29.086 27.5362 29.092C27.518 29.1 27.4978 29.102 27.4784 29.098C27.459 29.094 27.4412 29.086 27.4272 29.072C27.4132 29.058 27.4038 29.04 27.3998 29.02C27.396 29 27.398 28.98 27.4056 28.962C27.4132 28.944 27.426 28.928 27.4424 28.918C27.4588 28.906 27.4782 28.9 27.498 28.9" stroke="white" stroke-width="1.5" stroke-linecap="round" stroke-linejoin="round"/>
<path d="M27.498 28.9C27.5246 28.9 27.55 28.91 27.5688 28.93C27.5876 28.948 27.598 28.974 27.598 29" stroke="white" stroke-width="1.5" stroke-linecap="round" stroke-linejoin="round"/>
<path d="M34.6 29C34.6 29.02 34.594 29.04 34.583 29.056C34.572 29.072 34.5564 29.086 34.5382 29.092C34.5198 29.1 34.4998 29.102 34.4804 29.098C34.461 29.094 34.4432 29.086 34.4292 29.072C34.4152 29.058 34.4056 29.04 34.4018 29.02C34.398 29 34.4 28.98 34.4076 28.962C34.415 28.944 34.428 28.928 34.4444 28.918C34.4608 28.906 34.4802 28.9 34.5 28.9" stroke="white" stroke-width="1.5" stroke-linecap="round" stroke-linejoin="round"/>
<path d="M34.5 28.9C34.5266 28.9 34.552 28.91 34.5708 28.93C34.5894 28.948 34.6 28.974 34.6 29" stroke="white" stroke-width="1.5" stroke-linecap="round" stroke-linejoin="round"/>
<path d="M34.6 35C34.6 35.02 34.594 35.04 34.583 35.056C34.572 35.072 34.5564 35.086 34.5382 35.092C34.5198 35.1 34.4998 35.102 34.4804 35.098C34.461 35.094 34.4432 35.086 34.4292 35.072C34.4152 35.058 34.4056 35.04 34.4018 35.02C34.398 35 34.4 34.98 34.4076 34.962C34.415 34.944 34.428 34.928 34.4444 34.918C34.4608 34.906 34.4802 34.9 34.5 34.9" stroke="white" stroke-width="1.5" stroke-linecap="round" stroke-linejoin="round"/>
<path d="M34.5 34.9C34.5266 34.9 34.552 34.91 34.5708 34.93C34.5894 34.948 34.6 34.974 34.6 35" stroke="white" stroke-width="1.5" stroke-linecap="round" stroke-linejoin="round"/>
<path d="M27.598 35C27.598 35.02 27.592 35.04 27.581 35.056C27.5702 35.072 27.5544 35.086 27.5362 35.092C27.518 35.1 27.4978 35.102 27.4784 35.098C27.459 35.094 27.4412 35.086 27.4272 35.072C27.4132 35.058 27.4038 35.04 27.3998 35.02C27.396 35 27.398 34.98 27.4056 34.962C27.4132 34.944 27.426 34.928 27.4424 34.918C27.4588 34.906 27.4782 34.9 27.498 34.9" stroke="white" stroke-width="1.5" stroke-linecap="round" stroke-linejoin="round"/>
<path d="M27.498 34.9C27.5246 34.9 27.55 34.91 27.5688 34.93C27.5876 34.948 27.598 34.974 27.598 35" stroke="white" stroke-width="1.5" stroke-linecap="round" stroke-linejoin="round"/>
<path d="M20.598 35C20.598 35.02 20.592 35.04 20.581 35.056C20.5702 35.072 20.5544 35.086 20.5362 35.092C20.518 35.1 20.4978 35.102 20.4784 35.098C20.459 35.094 20.4412 35.086 20.4272 35.072C20.4132 35.058 20.4038 35.04 20.3998 35.02C20.396 35 20.398 34.98 20.4056 34.962C20.4132 34.944 20.426 34.928 20.4424 34.918C20.4588 34.906 20.4782 34.9 20.498 34.9" stroke="white" stroke-width="1.5" stroke-linecap="round" stroke-linejoin="round"/>
<path d="M20.498 34.9C20.5246 34.9 20.55 34.91 20.5688 34.93C20.5876 34.948 20.598 34.974 20.598 35" stroke="white" stroke-width="1.5" stroke-linecap="round" stroke-linejoin="round"/>
<path d="M13.598 35C13.598 35.02 13.592 35.04 13.581 35.056C13.5702 35.072 13.5544 35.086 13.5362 35.092C13.518 35.1 13.4978 35.102 13.4784 35.098C13.459 35.094 13.4412 35.086 13.4272 35.072C13.4132 35.058 13.4038 35.04 13.3998 35.02C13.396 35 13.398 34.98 13.4056 34.962C13.4132 34.944 13.426 34.928 13.4424 34.918C13.4588 34.906 13.4782 34.9 13.498 34.9" stroke="white" stroke-width="1.5" stroke-linecap="round" stroke-linejoin="round"/>
<path d="M13.498 34.9C13.5246 34.9 13.55 34.91 13.5688 34.93C13.5876 34.948 13.598 34.974 13.598 35" stroke="white" stroke-width="1.5" stroke-linecap="round" stroke-linejoin="round"/>
</g>
</svg>
