<svg width="24" height="24" viewBox="0 0 24 24" fill="none" xmlns="http://www.w3.org/2000/svg">
<g clip-path="url(#clip0_1096_249)">
<path d="M5 9H1.5" stroke="white" stroke-width="1.5" stroke-linecap="round" stroke-linejoin="round"/>
<path d="M5 15H3.5" stroke="white" stroke-width="1.5" stroke-linecap="round" stroke-linejoin="round"/>
<path d="M5 12H2.5" stroke="white" stroke-width="1.5" stroke-linecap="round" stroke-linejoin="round"/>
<path d="M5.636 5.63598C6.89467 4.37731 8.49832 3.52014 10.2441 3.17288C11.99 2.82561 13.7996 3.00384 15.4441 3.68503C17.0886 4.36622 18.4943 5.51977 19.4832 6.99981C20.4721 8.47985 21 10.2199 21 11.9999C21 13.78 20.4721 15.52 19.4832 17.0001C18.4943 18.4801 17.0886 19.6337 15.4441 20.3149C13.7996 20.996 11.99 21.1743 10.2441 20.827C8.49832 20.4797 6.89467 19.6226 5.636 18.3639" stroke="white" stroke-width="1.5" stroke-linecap="round" stroke-linejoin="round"/>
<path d="M12 7.5V8.5" stroke="white" stroke-width="1.5" stroke-linecap="round" stroke-linejoin="round"/>
<path d="M12 16.5V15.5" stroke="white" stroke-width="1.5" stroke-linecap="round" stroke-linejoin="round"/>
<path d="M14.1927 9.9211C14.0278 9.48048 13.7257 9.10452 13.3309 8.84865C12.9361 8.59278 12.4695 8.47054 12 8.49998C11.4618 8.44892 10.9251 8.61054 10.5045 8.95025C10.084 9.28996 9.8132 9.78078 9.75 10.3177C9.75 10.6652 9.8704 11.0019 10.0907 11.2707C10.311 11.5394 10.6176 11.7235 10.9584 11.7917L13.0416 12.2083C13.3824 12.2764 13.689 12.4606 13.9093 12.7293C14.1296 12.998 14.25 13.3348 14.25 13.6823C14.1868 14.2192 13.916 14.71 13.4955 15.0497C13.0749 15.3894 12.5382 15.551 12 15.5C11.5305 15.5294 11.0639 15.4072 10.6691 15.1513C10.2743 14.8954 9.97218 14.5195 9.80729 14.0789" stroke="white" stroke-width="1.5" stroke-linecap="round" stroke-linejoin="round"/>
</g>
<defs>
<clipPath id="clip0_1096_249">
<rect width="24" height="24" fill="white"/>
</clipPath>
</defs>
</svg>
