<svg width="48" height="48" viewBox="0 0 48 48" fill="none" xmlns="http://www.w3.org/2000/svg">
<mask id="mask0_1069_334" style="mask-type:luminance" maskUnits="userSpaceOnUse" x="0" y="0" width="48" height="48">
<path d="M48 0H0V48H48V0Z" fill="white"/>
</mask>
<g mask="url(#mask0_1069_334)">
<path d="M20 28.5C25.2464 28.5 29.5 32.7536 29.5 38C29.5 38.8284 28.8284 39.5 28 39.5C27.1716 39.5 26.5 38.8284 26.5 38C26.5 34.5342 23.7868 31.7016 20.3688 31.5102L20 31.5H12C8.4104 31.5 5.5 34.4104 5.5 38C5.5 38.8284 4.8284 39.5 4 39.5C3.1716 39.5 2.5 38.8284 2.5 38C2.5 32.8994 6.5206 28.737 11.5652 28.5098L12 28.5H20Z" fill="white"/>
<path d="M9.98961 10.9896C13.309 7.67015 18.691 7.67015 22.0104 10.9896C25.33 14.309 25.33 19.6909 22.0104 23.0103C18.691 26.3297 13.309 26.3297 9.98961 23.0103C6.67021 19.6909 6.67021 14.309 9.98961 10.9896ZM19.6138 12.8535C17.4534 10.9667 14.1694 11.0525 12.111 13.1109C9.96301 15.2587 9.96301 18.7411 12.111 20.8889C14.2588 23.0369 17.7412 23.0369 19.889 20.8889C21.9474 18.8305 22.0332 15.5465 20.1464 13.3861L19.889 13.1109L19.6138 12.8535Z" fill="white"/>
<path d="M38 26.5C42.1424 26.5 45.5 29.8576 45.5 34C45.5 34.8284 44.8284 35.5 44 35.5C43.2406 35.5 42.613 34.9356 42.5136 34.2036L42.5 34C42.5 31.618 40.65 29.6686 38.3082 29.5104L38 29.5H32C31.1716 29.5 30.5 28.8284 30.5 28C30.5 27.2406 31.0644 26.613 31.7964 26.5138L32 26.5H38Z" fill="white"/>
<path d="M30.4038 12.4038C32.9422 9.8654 37.0578 9.8654 39.5962 12.4038C42.1346 14.9422 42.1346 19.0578 39.5962 21.5962C37.0578 24.1346 32.9422 24.1346 30.4038 21.5962C27.8654 19.0578 27.8654 14.9422 30.4038 12.4038ZM37.2252 14.2982C35.8504 13.163 33.8116 13.2386 32.5252 14.5252C31.1584 15.892 31.1584 18.108 32.5252 19.4748C33.892 20.8418 36.1082 20.8418 37.475 19.4748C38.7614 18.1884 38.837 16.1498 37.702 14.7748L37.475 14.5252L37.2252 14.2982Z" fill="white"/>
</g>
</svg>
